<?xml version="1.0" encoding="UTF-8"?>
<svg xmlns="http://www.w3.org/2000/svg" width="100" height="100" viewBox="0 0 100 100">
  <g id="_017-friendship" data-name="017-friendship" transform="translate(0 -0.001)">
    <path id="Path_305" data-name="Path 305" d="M351.647,161.564h0a11.18,11.18,0,0,0-11.18,11.18v1.142h5.466a12.283,12.283,0,0,0,9.414-4.394h0a4.281,4.281,0,0,0,4.133,4.278l3.346.115v-1.142A11.18,11.18,0,0,0,351.647,161.564Z" transform="translate(-273.97 -130.008)" fill="#e6aa46"></path>
    <path id="Path_306" data-name="Path 306" d="M355.348,202.154a12.283,12.283,0,0,1-9.414,4.394h-5.466v3.5a11.18,11.18,0,0,0,11.18,11.18h0a11.18,11.18,0,0,0,11.18-11.18v-3.5l-3.346-.115A4.281,4.281,0,0,1,355.348,202.154Z" transform="translate(-273.97 -162.67)" fill="#ffcdac"></path>
    <path id="Path_307" data-name="Path 307" d="M36.488,172.922V156.487a15.234,15.234,0,0,1,15.234-15.234h0a15.234,15.234,0,0,1,15.234,15.234v16.434Z" transform="translate(-29.361 -113.664)" fill="#ff9155"></path>
    <path id="Path_308" data-name="Path 308" d="M66.66,223.836A9.341,9.341,0,0,0,76,233.177h0a9.341,9.341,0,0,0,9.341-9.341V217H66.66Z" transform="translate(-53.64 -174.616)" fill="#ffcdac"></path>
    <path id="Path_309" data-name="Path 309" d="M53.931,178.482l-18.225,23H18.512A8.512,8.512,0,0,0,10,209.99v30.976H42.567l0-26.19,15.16-26.749a2.293,2.293,0,0,0,.3-1.131v-6.99A2.293,2.293,0,0,0,53.931,178.482Z" transform="translate(-8.047 -142.918)" fill="#a5dc69"></path>
    <path id="Path_310" data-name="Path 310" d="M97.84,299.826l-5.337,13.6-5.335-13.6Z" transform="translate(-70.144 -241.265)" fill="#fff"></path>
    <path id="Path_311" data-name="Path 311" d="M260.218,178.482l18.225,23h17.194a8.512,8.512,0,0,1,8.512,8.512v30.976H271.581l0-26.19-15.16-26.749a2.293,2.293,0,0,1-.3-1.131v-6.99A2.293,2.293,0,0,1,260.218,178.482Z" transform="translate(-206.101 -142.918)" fill="#78d2fa"></path>
    <path id="Path_312" data-name="Path 312" d="M370.193,299.826l5.337,13.6,5.335-13.6Z" transform="translate(-297.89 -241.265)" fill="#fff"></path>
    <path id="Path_313" data-name="Path 313" d="M202.645,10a8.2,8.2,0,0,0-6.068,2.7,8.2,8.2,0,0,0-6.068-2.7,8.495,8.495,0,0,0-8.352,8.63c0,6.677,14.42,17,14.42,17S211,25.309,211,18.632A8.495,8.495,0,0,0,202.645,10Z" transform="translate(-146.579 -8.048)" fill="#ff5a5a"></path>
    <path id="Path_314" data-name="Path 314" d="M89.535,162.221H87.014A13.089,13.089,0,0,0,90.81,153v-4.645a13.133,13.133,0,0,0-26.266,0V151.2l-8.9-11.237a4.2,4.2,0,0,0-4.725-1.375,4.361,4.361,0,0,0-.923.448,4.361,4.361,0,0,0-.923-.448,4.2,4.2,0,0,0-4.724,1.374L39.4,146.212a17.188,17.188,0,0,0-34.231,2.228v15.226A10.468,10.468,0,0,0,0,172.688v30.976a1.953,1.953,0,0,0,1.953,1.953H34.521a1.953,1.953,0,0,0,1.953-1.953l0-25.675L50,154.116l3.261,5.753a1.953,1.953,0,1,0,3.4-1.926l-4.637-8.181a.344.344,0,0,1-.045-.168V142.6a.34.34,0,0,1,.607-.211l14.2,17.94a13.233,13.233,0,0,0,1.243,1.566,1.98,1.98,0,0,0,.174.183,13.238,13.238,0,0,0,2.2,1.844,1.953,1.953,0,0,0,.111.456l5.337,14.082a1.953,1.953,0,0,0,1.815,1.261h.012a1.953,1.953,0,0,0,1.818-1.24l4.849-12.358h5.19a6.566,6.566,0,0,1,6.558,6.558v29.022H91.826V176.624a1.953,1.953,0,0,0-3.906,0v25.086H67.433l0-24.237a1.952,1.952,0,0,0-.254-.963l-3.9-6.886a1.953,1.953,0,0,0-3.4,1.926l3.649,6.438s0,25.453,0,25.675a1.953,1.953,0,0,0,1.953,1.953l32.568,0A1.953,1.953,0,0,0,100,203.661V172.686A10.477,10.477,0,0,0,89.535,162.221ZM9.079,148.439a13.281,13.281,0,0,1,26.563,0v2.519l-1.987,2.507V148a1.953,1.953,0,0,0-1.953-1.953H13.02A1.953,1.953,0,0,0,11.066,148v6.836a11.243,11.243,0,0,0,2.763,7.388H10.465a10.488,10.488,0,0,0-1.385.095Zm20.67,6.4a7.388,7.388,0,1,1-14.776,0v-4.883H29.749ZM22.323,166.13h.038a11.277,11.277,0,0,0,2.59-.3l-2.59,6.6-2.471-6.3Zm25.7-16.536a.341.341,0,0,1-.044.168l-15.16,26.749a1.952,1.952,0,0,0-.254.963l0,24.237H12.08V186.06a1.953,1.953,0,0,0-1.953-1.953h0a1.953,1.953,0,0,0-1.953,1.953v15.651H3.906V172.688a6.566,6.566,0,0,1,3.806-5.951,1.934,1.934,0,0,0,.354-.152,6.523,6.523,0,0,1,2.4-.456h5.229l4.848,12.355a1.953,1.953,0,0,0,1.818,1.24h0a1.953,1.953,0,0,0,1.818-1.239l5.268-13.419L38.9,153.138a1.96,1.96,0,0,0,.415-.523l8.1-10.221a.34.34,0,0,1,.607.211v6.99Zm29.655-10.469a9.239,9.239,0,0,1,9.185,8.345l-1.283-.044a2.319,2.319,0,0,1-2.247-2.326,1.953,1.953,0,0,0-3.45-1.255,10.305,10.305,0,0,1-7.917,3.7H68.486A9.24,9.24,0,0,1,77.677,139.125ZM68.451,153v-1.55h3.513A14.2,14.2,0,0,0,80.5,148.61a6.212,6.212,0,0,0,4.948,2.721l1.46.05V153a9.236,9.236,0,0,1-9.136,9.224h-.09l-.03,0a9.2,9.2,0,0,1-6.667-2.889l-1.021-1.29A9.169,9.169,0,0,1,68.451,153Zm9.259,19.347L75.269,165.9a13.135,13.135,0,0,0,2.408.225l.09,0h2.382Z" transform="translate(0 -105.616)"></path>
    <path id="Path_315" data-name="Path 315" d="M292.616,295.352a1.954,1.954,0,1,0-.572,1.381A1.967,1.967,0,0,0,292.616,295.352Z" transform="translate(-232.321 -236.094)"></path>
    <path id="Path_316" data-name="Path 316" d="M43.812,359.43a1.954,1.954,0,1,0,1.381.572A1.972,1.972,0,0,0,43.812,359.43Z" transform="translate(-33.683 -289.228)"></path>
    <path id="Path_317" data-name="Path 317" d="M179.977,23.008a78.413,78.413,0,0,0,7.416,6.169,1.953,1.953,0,0,0,2.275,0,78.464,78.464,0,0,0,7.416-6.169c5.262-4.987,7.819-9.051,7.819-12.424A10.459,10.459,0,0,0,194.6,0a10.167,10.167,0,0,0-6.067,2.031A10.167,10.167,0,0,0,182.463,0a10.459,10.459,0,0,0-10.306,10.584C172.157,13.958,174.715,18.022,179.977,23.008Zm2.486-19.1a6.22,6.22,0,0,1,4.627,2.066,1.953,1.953,0,0,0,2.881,0A6.221,6.221,0,0,1,194.6,3.907a6.55,6.55,0,0,1,6.4,6.677c0,3.84-7.225,10.618-12.467,14.579-5.242-3.958-12.466-10.734-12.466-14.579A6.55,6.55,0,0,1,182.463,3.907Z" transform="translate(-138.533 0)"></path>
    <path id="Path_318" data-name="Path 318" d="M382.5,260.784a4.36,4.36,0,0,0,3.092-1.279,1.953,1.953,0,0,0-2.762-2.762.467.467,0,0,1-.66,0,1.953,1.953,0,0,0-2.762,2.762A4.36,4.36,0,0,0,382.5,260.784Z" transform="translate(-304.846 -206.137)"></path>
    <path id="Path_319" data-name="Path 319" d="M99.39,260.784a4.36,4.36,0,0,0,3.092-1.279,1.953,1.953,0,0,0-2.762-2.762.467.467,0,0,1-.66,0,1.953,1.953,0,0,0-2.762,2.762A4.361,4.361,0,0,0,99.39,260.784Z" transform="translate(-77.03 -206.137)"></path>
  </g>
</svg>
