<?xml version="1.0" encoding="UTF-8"?>
<svg xmlns="http://www.w3.org/2000/svg" width="100" height="89.453" viewBox="0 0 100 89.453">
  <g id="_018-family" data-name="018-family" transform="translate(0 -27)">
    <path id="Path_284" data-name="Path 284" d="M277.893,261.368h25.969a17.8,17.8,0,0,1,17.8,17.8v23.923H277.893Z" transform="translate(-223.617 -188.593)" fill="#4bb9f5"></path>
    <path id="Path_285" data-name="Path 285" d="M88.307,83.121V56.676A19.676,19.676,0,0,0,68.63,37h0A19.676,19.676,0,0,0,48.954,56.676v26.61Z" transform="translate(-39.393 -8.047)" fill="#f5c86e"></path>
    <path id="Path_286" data-name="Path 286" d="M54.435,261.368H28.466a17.8,17.8,0,0,0-17.8,17.8v23.923H54.435" transform="translate(-8.581 -188.593)" fill="#ff8c8c"></path>
    <path id="Path_287" data-name="Path 287" d="M199.611,351.311V334.172a12.3,12.3,0,0,0-9.317-11.929l-4.481-.916-8.551-.038-4.481.954a12.3,12.3,0,0,0-9.317,11.929v17.138Z" transform="translate(-131.537 -236.811)" fill="#a5dc69"></path>
    <g id="Group_44" data-name="Group 44" transform="translate(14.859 48.582)">
      <path id="Path_288" data-name="Path 288" d="M76.077,141.1v6.139A14.453,14.453,0,0,0,90.53,161.693h0a14.453,14.453,0,0,0,14.453-14.453V141.1l-9.195-3.6Z" transform="translate(-76.077 -137.5)" fill="#ffcdac"></path>
      <path id="Path_289" data-name="Path 289" d="M212.339,206.041a10.6,10.6,0,0,0-10.6,10.6v2.192a10.589,10.589,0,0,0,10.6,10.58h0a10.589,10.589,0,0,0,10.6-10.58v-2.192a10.6,10.6,0,0,0-10.6-10.6Z" transform="translate(-177.198 -192.654)" fill="#ffcdac"></path>
    </g>
    <path id="Path_290" data-name="Path 290" d="M212.943,206.041h0a10.6,10.6,0,0,0-10.451,8.846h8.029a5.5,5.5,0,0,0,4.326-2.1l-.711,1.041,3.928,1.064h5.329A10.6,10.6,0,0,0,212.943,206.041Zm2.312,6.145h0Z" transform="translate(-162.943 -144.072)" fill="#ff9155"></path>
    <path id="Path_291" data-name="Path 291" d="M316.829,133v10.619a14.453,14.453,0,0,1-14.453,14.453h0a14.453,14.453,0,0,1-14.453-14.453V133Z" transform="translate(-231.688 -85.297)" fill="#ffcdac"></path>
    <path id="Path_292" data-name="Path 292" d="M302.376,64.123h0a14.453,14.453,0,0,0-14.453,14.453v3.479h7.067a15.88,15.88,0,0,0,12.171-5.68h0l9.669,5.68V78.576A14.453,14.453,0,0,0,302.376,64.123Z" transform="translate(-231.688 -29.872)" fill="#bebebe"></path>
    <g id="Group_45" data-name="Group 45" transform="translate(20.787 73.654)">
      <path id="Path_293" data-name="Path 293" d="M318.656,265.869l8.452,13.516,8.449-13.516" transform="translate(-277.206 -265.869)" fill="#ffb487"></path>
      <path id="Path_294" data-name="Path 294" d="M106.43,265.869l8.452,13.516,8.449-13.516" transform="translate(-106.43 -265.869)" fill="#ffb487"></path>
    </g>
    <path id="Path_295" data-name="Path 295" d="M55.953,355.616a1.957,1.957,0,1,0-1.381-.574A1.961,1.961,0,0,0,55.953,355.616Z" transform="translate(-43.453 -261.29)"></path>
    <path id="Path_296" data-name="Path 296" d="M466.867,282.406a1.953,1.953,0,1,0,2.828-2.695l-.14-.145a1.953,1.953,0,1,0-2.8,2.72Z" transform="translate(-375.145 -202.759)"></path>
    <path id="Path_297" data-name="Path 297" d="M98.807,83.8a1.953,1.953,0,0,0-3.669,1.34,15.8,15.8,0,0,1,.956,5.437v21.97H89.453V92.372a1.953,1.953,0,0,0-3.906,0v20.175H70.027V97.362a14.217,14.217,0,0,0-10.8-13.824l-.08-.018-.154-.031a12.512,12.512,0,0,0,3.276-6.1l6.764,10.816a1.953,1.953,0,0,0,3.312,0l8.417-13.466a15.769,15.769,0,0,1,4.981.968A1.953,1.953,0,0,0,87.1,72.044a19.646,19.646,0,0,0-5.835-1.194,16.374,16.374,0,0,0,5.83-12.529V47.7a1.948,1.948,0,0,0-.073-.525A16.427,16.427,0,0,0,70.688,32.3h0A16.427,16.427,0,0,0,54.355,47.178a1.947,1.947,0,0,0-.073.525V58.322a16.473,16.473,0,0,0,.194,2.522,12.459,12.459,0,0,0-3.609-.795V48.63a21.63,21.63,0,1,0-43.259,0V75.008A19.731,19.731,0,0,0,0,90.577V114.5a1.953,1.953,0,0,0,1.953,1.953H98.047A1.953,1.953,0,0,0,100,114.5V90.577A19.7,19.7,0,0,0,98.807,83.8ZM66.12,97.362v15.185H60.412V100.438a1.953,1.953,0,1,0-3.906,0v12.109H41.662V100.438a1.953,1.953,0,0,0-3.906,0v12.109H33.879V97.362a10.318,10.318,0,0,1,7.8-10.026l3.927-.836a12.557,12.557,0,0,0,8.722.022l3.991.816A10.317,10.317,0,0,1,66.12,97.362ZM16.812,54.136h5.114a17.785,17.785,0,0,0,12.539-5.152L41.812,53.3v5.021a12.5,12.5,0,1,1-25,0ZM50,63.922a8.654,8.654,0,0,1,7.809,4.94H55.381l-1.164-.315a1.953,1.953,0,0,0-3.586-1.427,3.561,3.561,0,0,1-3.053,1.742H42.191A8.654,8.654,0,0,1,50,63.922ZM29.312,74.728h0a16.311,16.311,0,0,0,6.153-1.2l-6.225,9.959-5.477-8.758Zm12.044-1.96h6.222a7.452,7.452,0,0,0,3.678-.976l3.355.909a1.952,1.952,0,0,0,.511.068h3.523v1.99a8.644,8.644,0,0,1-17.288,0V72.768ZM70.69,83.486l-6.253-10a16.313,16.313,0,0,0,6.251,1.24h5.476Zm0-12.664a12.514,12.514,0,0,1-12.5-12.5V54.136H63.3a17.785,17.785,0,0,0,12.539-5.152L83.188,53.3v5.021A12.514,12.514,0,0,1,70.688,70.822Zm0-34.618a12.514,12.514,0,0,1,12.5,12.5v.067l-6.726-3.952a1.953,1.953,0,0,0-2.486.429A13.893,13.893,0,0,1,63.3,50.23H58.188V48.7A12.514,12.514,0,0,1,70.688,36.2ZM11.514,48.63a17.723,17.723,0,1,1,35.447,0V60.39a12.416,12.416,0,0,0-1.437.454,16.47,16.47,0,0,0,.194-2.522V52.183a1.977,1.977,0,0,0-.964-1.684l-9.669-5.68a1.953,1.953,0,0,0-2.486.429A13.893,13.893,0,0,1,21.925,50.23H14.859a1.953,1.953,0,0,0-1.953,1.953v6.139a16.374,16.374,0,0,0,5.828,12.526,19.608,19.608,0,0,0-7.219,1.777Zm7.65,26.113,8.419,13.462a1.953,1.953,0,0,0,3.312,0L37.71,77.3A12.513,12.513,0,0,0,41,83.486l-.168.036-.065.015a14.217,14.217,0,0,0-10.8,13.824v15.186H14.453V100.958a1.953,1.953,0,0,0-3.906,0v11.588H3.906V90.577A15.865,15.865,0,0,1,19.165,74.743Z" transform="translate(0 0)"></path>
    <path id="Path_298" data-name="Path 298" d="M323.424,173.472a1.952,1.952,0,1,0,.572,1.381A1.968,1.968,0,0,0,323.424,173.472Z" transform="translate(-257.572 -117.404)"></path>
    <path id="Path_299" data-name="Path 299" d="M385.713,172.9a1.954,1.954,0,1,0,1.381.572A1.968,1.968,0,0,0,385.713,172.9Z" transform="translate(-308.807 -117.404)"></path>
    <path id="Path_300" data-name="Path 300" d="M345.132,205.528a1.318,1.318,0,0,1-1.863,0,1.953,1.953,0,0,0-2.762,2.762,5.23,5.23,0,0,0,7.387,0,1.953,1.953,0,0,0-2.762-2.762Z" transform="translate(-273.542 -143.199)"></path>
    <path id="Path_301" data-name="Path 301" d="M110.193,176.806a1.954,1.954,0,1,0-1.381-.572A1.959,1.959,0,0,0,110.193,176.806Z" transform="translate(-87.099 -117.404)"></path>
    <path id="Path_302" data-name="Path 302" d="M173.863,176.806a1.954,1.954,0,1,0-1.381-.572A1.964,1.964,0,0,0,173.863,176.806Z" transform="translate(-138.334 -117.404)"></path>
    <path id="Path_303" data-name="Path 303" d="M128.661,208.291a5.23,5.23,0,0,0,7.387,0,1.953,1.953,0,0,0-2.762-2.762,1.318,1.318,0,0,1-1.863,0,1.953,1.953,0,1,0-2.762,2.762Z" transform="translate(-103.071 -143.199)"></path>
    <path id="Path_304" data-name="Path 304" d="M238.425,284.633a5.207,5.207,0,0,0,3.694-1.527,1.953,1.953,0,1,0-2.762-2.762,1.318,1.318,0,0,1-1.863,0,1.953,1.953,0,0,0-2.762,2.762A5.208,5.208,0,0,0,238.425,284.633Z" transform="translate(-188.425 -203.402)"></path>
  </g>
</svg>
