<?xml version="1.0" encoding="UTF-8"?>
<svg xmlns="http://www.w3.org/2000/svg" width="100" height="96.732" viewBox="0 0 100 96.732">
  <g id="_019-network" data-name="019-network" transform="translate(0 -8.367)">
    <circle id="Ellipse_4" data-name="Ellipse 4" cx="13.672" cy="13.672" r="13.672" transform="translate(1.896 35.363)" fill="#afeba5"></circle>
    <path id="Path_179" data-name="Path 179" d="M100.37,182.02a4.252,4.252,0,0,0-5.048,2.011l-1.2,2.213-2.342,7.214-.325,2.488a4.252,4.252,0,0,0,2.9,4.594l.892.29a13.665,13.665,0,0,0,6.018-18.519Z" transform="translate(-73.56 -139.568)" fill="#ffb487"></path>
    <path id="Path_180" data-name="Path 180" d="M47.283,193.158h0A4.636,4.636,0,0,0,50.26,199l2.869.932a4.636,4.636,0,0,0,5.842-2.977h0a4.636,4.636,0,0,0-2.977-5.842l-2.869-.932A4.636,4.636,0,0,0,47.283,193.158Z" transform="translate(-37.864 -146.12)" fill="#ffcdac"></path>
    <circle id="Ellipse_5" data-name="Ellipse 5" cx="13.672" cy="13.672" r="13.672" transform="translate(15.082 75.831)" fill="#9bbeff"></circle>
    <path id="Path_181" data-name="Path 181" d="M129.591,354.734a4.251,4.251,0,0,0,.352,5.422l1.732,1.829,6.137,4.457,2.266,1.078a4.252,4.252,0,0,0,5.266-1.34l.551-.759a13.665,13.665,0,0,0-15.753-11.446Z" transform="translate(-103.627 -277.957)" fill="#f5b955"></path>
    <path id="Path_182" data-name="Path 182" d="M119.88,405.957h0a4.636,4.636,0,0,0,6.476-1.026l1.773-2.441a4.636,4.636,0,0,0-1.026-6.476h0a4.636,4.636,0,0,0-6.476,1.026l-1.773,2.441A4.637,4.637,0,0,0,119.88,405.957Z" transform="translate(-94.928 -311.222)" fill="#ffcdac"></path>
    <circle id="Ellipse_6" data-name="Ellipse 6" cx="13.672" cy="13.672" r="13.672" transform="translate(57.641 75.798)" fill="#aae6ff"></circle>
    <path id="Path_183" data-name="Path 183" d="M296.473,366a4.251,4.251,0,0,0,5.265,1.34l2.275-1.082,6.135-4.46,1.726-1.822a4.251,4.251,0,0,0,.352-5.422l-.551-.759a13.665,13.665,0,0,0-15.754,11.445Z" transform="translate(-238.124 -277.817)" fill="#a5dc69"></path>
    <path id="Path_184" data-name="Path 184" d="M346.949,405.781h0a4.636,4.636,0,0,0,1.026-6.476l-1.773-2.441a4.636,4.636,0,0,0-6.476-1.026h0a4.636,4.636,0,0,0-1.026,6.476l1.773,2.441A4.636,4.636,0,0,0,346.949,405.781Z" transform="translate(-271.835 -311.081)" fill="#ffcdac"></path>
    <circle id="Ellipse_7" data-name="Ellipse 7" cx="13.672" cy="13.672" r="13.672" transform="translate(70.762 35.308)" fill="#ff8c8c"></circle>
    <path id="Path_185" data-name="Path 185" d="M370.736,200.255a4.252,4.252,0,0,0,2.9-4.594l-.326-2.5-2.346-7.213-1.2-2.2a4.252,4.252,0,0,0-5.048-2.011l-.892.29a13.665,13.665,0,0,0,6.017,18.52Z" transform="translate(-291.527 -139.339)" fill="#7d9bff"></path>
    <path id="Path_186" data-name="Path 186" d="M414.691,192.874h0a4.636,4.636,0,0,0-5.842-2.977l-2.869.932A4.636,4.636,0,0,0,403,196.671h0a4.636,4.636,0,0,0,5.842,2.977l2.869-.932A4.636,4.636,0,0,0,414.691,192.874Z" transform="translate(-324.108 -145.891)" fill="#ffcdac"></path>
    <circle id="Ellipse_8" data-name="Ellipse 8" cx="15.234" cy="15.234" r="15.234" transform="translate(34.775 44.963)" fill="#ffe682"></circle>
    <circle id="Ellipse_9" data-name="Ellipse 9" cx="13.672" cy="13.672" r="13.672" transform="translate(36.31 10.321)" fill="#d7fa91"></circle>
    <path id="Path_187" data-name="Path 187" d="M225.523,113.564a4.252,4.252,0,0,0-3.472-4.18l-2.476-.462-7.585,0-2.467.46a4.252,4.252,0,0,0-3.472,4.18v.938a13.665,13.665,0,0,0,19.473,0v-.939Z" transform="translate(-165.806 -80.915)" fill="#ff8c8c"></path>
    <path id="Path_188" data-name="Path 188" d="M236.8,55.258h0a4.636,4.636,0,0,0-4.637,4.637v3.017a4.637,4.637,0,0,0,4.637,4.637h0a4.637,4.637,0,0,0,4.637-4.637V59.894A4.636,4.636,0,0,0,236.8,55.258Z" transform="translate(-186.818 -37.733)" fill="#ffcdac"></path>
    <g id="Group_26" data-name="Group 26" transform="translate(42.197 56.779)">
      <path id="Path_189" data-name="Path 189" d="M219.095,256.238c1.681,0,4.769,3.417,4.769,3.417s-3.088,3.417-4.769,3.417a3.44,3.44,0,0,1,0-6.834Z" transform="translate(-216.051 -256.238)" fill="#fff"></path>
      <path id="Path_190" data-name="Path 190" d="M260.819,256.238c-1.681,0-4.769,3.417-4.769,3.417s3.088,3.417,4.769,3.417a3.44,3.44,0,0,0,0-6.834Z" transform="translate(-248.238 -256.238)" fill="#fff"></path>
    </g>
    <path id="Path_191" data-name="Path 191" d="M100,49.031A15.617,15.617,0,0,0,78.785,34.444a38.775,38.775,0,0,0-13.2-9.59c.016-.286.025-.573.025-.862a15.625,15.625,0,0,0-31.249,0c0,.3.011.6.027.892a38.831,38.831,0,0,0-13.157,9.565,15.623,15.623,0,1,0-9.635,29.676,38.821,38.821,0,0,0,5.04,15.5A15.616,15.616,0,1,0,41.866,97.947a38.748,38.748,0,0,0,16.326-.009A15.617,15.617,0,1,0,83.405,79.589a38.829,38.829,0,0,0,5.024-15.47A15.65,15.65,0,0,0,100,49.031Zm-3.906,0A11.7,11.7,0,0,1,82.8,60.64a6.172,6.172,0,0,0,1.271-4.617l-.017-.134a6.465,6.465,0,0,0,1.143-.256l3.154-1.025a6.41,6.41,0,0,0,4.111-8.067h0l-.1-.3a6.4,6.4,0,0,0-8.067-4.111l-3.154,1.025a6.466,6.466,0,0,0-1.077.462L80,43.5a6.172,6.172,0,0,0-3.676-2.97,11.783,11.783,0,0,1,2.417-1.77,1.94,1.94,0,0,0,.793-.393l.007-.007A11.711,11.711,0,0,1,96.094,49.031ZM73.625,44.372l.244-.079a2.273,2.273,0,0,1,2.7,1.075l.7,1.28a6.357,6.357,0,0,0-.237,4.574l.1.3a6.355,6.355,0,0,0,2.88,3.561l.189,1.445a2.274,2.274,0,0,1-1.552,2.456l-.291.095a11.7,11.7,0,0,1-4.726-14.707Zm8.456,7.4a2.48,2.48,0,0,1-1.241-1.453l-.1-.3a2.5,2.5,0,0,1,1.6-3.145L85.5,45.843a2.5,2.5,0,0,1,3.145,1.6l.1.3a2.5,2.5,0,0,1-1.6,3.144l-3.154,1.025A2.479,2.479,0,0,1,82.081,51.768Zm-32.1-39.5A11.715,11.715,0,0,1,60.527,29.1a6.171,6.171,0,0,0-3.962-2.581l-.131-.025a6.413,6.413,0,0,0,.108-1.166V22.008a6.409,6.409,0,0,0-6.4-6.4h-.318a6.409,6.409,0,0,0-6.4,6.4v3.316a6.414,6.414,0,0,0,.108,1.166l-.131.024A6.172,6.172,0,0,0,39.435,29.1,11.715,11.715,0,0,1,49.981,12.273Zm2.655,13.052a2.5,2.5,0,0,1-2.5,2.5h-.318a2.5,2.5,0,0,1-2.5-2.5V22.009a2.5,2.5,0,0,1,2.5-2.5h.318a2.5,2.5,0,0,1,2.5,2.5ZM45.55,30.088a6.375,6.375,0,0,0,4.272,1.639h.318a6.377,6.377,0,0,0,4.272-1.639l1.437.268A2.273,2.273,0,0,1,57.7,32.59v.2a11.685,11.685,0,0,1-15.447,0v-.2a2.273,2.273,0,0,1,1.856-2.234ZM3.906,49.031a11.709,11.709,0,0,1,19.816-8.459A6.172,6.172,0,0,0,20,43.554l-.064.117a6.394,6.394,0,0,0-1.076-.463L15.71,42.183a6.4,6.4,0,0,0-8.067,4.11h0l-.1.3a6.409,6.409,0,0,0,4.11,8.067l3.154,1.025a6.39,6.39,0,0,0,1.143.255l-.018.135a6.172,6.172,0,0,0,1.231,4.568A11.7,11.7,0,0,1,3.906,49.031ZM21.588,59.113l-.23-.075a2.273,2.273,0,0,1-1.551-2.455L20,55.13a6.374,6.374,0,0,0,2.879-3.554l.1-.3a6.377,6.377,0,0,0-.239-4.57l.7-1.283a2.274,2.274,0,0,1,2.7-1.075l.271.088a11.707,11.707,0,0,1-4.815,14.678Zm-2.329-9.045-.1.3a2.5,2.5,0,0,1-3.145,1.6l-3.154-1.025a2.5,2.5,0,0,1-1.6-3.145l.1-.3A2.5,2.5,0,0,1,14.5,45.9l3.154,1.025A2.5,2.5,0,0,1,19.259,50.068Zm9.49,51.125a11.716,11.716,0,0,1-5.527-22.049,6.172,6.172,0,0,0,1.687,4.447l.091.1a6.468,6.468,0,0,0-.772.881l-1.949,2.683A6.409,6.409,0,0,0,23.7,96.194l.257.187A6.355,6.355,0,0,0,27.7,97.6a6.488,6.488,0,0,0,1.015-.08,6.361,6.361,0,0,0,4.178-2.56l1.949-2.683a6.4,6.4,0,0,0,.6-1.007l.121.057a6.163,6.163,0,0,0,4.712.244A11.735,11.735,0,0,1,28.749,101.193Zm7.172-14.017a6.376,6.376,0,0,0-2.493-3.837l-.257-.187a6.354,6.354,0,0,0-4.423-1.188l-1-1.058a2.273,2.273,0,0,1-.188-2.9l.147-.2c.344-.03.692-.049,1.044-.049a11.737,11.737,0,0,1,11.433,9.157l-.127.175a2.273,2.273,0,0,1-2.815.716ZM25.439,89.547l1.949-2.683a2.481,2.481,0,0,1,1.629-1,2.534,2.534,0,0,1,.4-.031,2.478,2.478,0,0,1,1.462.477l.257.187a2.5,2.5,0,0,1,.552,3.487l-1.949,2.683a2.5,2.5,0,0,1-3.487.552l-.257-.187h0A2.5,2.5,0,0,1,25.439,89.547Zm46.948-11.74.121.167a2.273,2.273,0,0,1-.188,2.9l-1,1.061a6.376,6.376,0,0,0-4.42,1.185l-.257.187a6.356,6.356,0,0,0-2.5,3.839l-1.316.626a2.273,2.273,0,0,1-2.814-.716l-.122-.168a11.737,11.737,0,0,1,11.427-9.13C71.677,77.756,72.034,77.774,72.387,77.807Zm-1.732,8a2.5,2.5,0,0,1,2.023,1.028l1.949,2.683A2.5,2.5,0,0,1,74.075,93l-.257.187a2.5,2.5,0,0,1-3.487-.552l-1.949-2.683a2.5,2.5,0,0,1,.552-3.487l.257-.187A2.482,2.482,0,0,1,70.655,85.8Zm.661,15.39a11.735,11.735,0,0,1-11.533-9.654A6.165,6.165,0,0,0,64.5,91.3l.119-.057a6.469,6.469,0,0,0,.6,1.007l1.949,2.683a6.36,6.36,0,0,0,4.178,2.56,6.49,6.49,0,0,0,1.015.08,6.355,6.355,0,0,0,3.749-1.224l.257-.187a6.409,6.409,0,0,0,1.416-8.943l-1.949-2.683a6.41,6.41,0,0,0-.773-.88l.092-.1a6.172,6.172,0,0,0,1.689-4.412,11.716,11.716,0,0,1-5.529,22.048Zm9.161-24.365A15.616,15.616,0,0,0,56.459,94.3a34.944,34.944,0,0,1-12.855.009,15.614,15.614,0,0,0-24.048-17.46,34.918,34.918,0,0,1-3.971-12.2h.041A15.617,15.617,0,0,0,24.766,36.37,34.929,34.929,0,0,1,35.13,28.838a15.621,15.621,0,0,0,29.712-.027,34.872,34.872,0,0,1,10.4,7.552,15.617,15.617,0,0,0,9.13,28.293l.059,0A34.932,34.932,0,0,1,80.477,76.828Z"></path>
    <path id="Path_192" data-name="Path 192" d="M248,189.639h.058a1.953,1.953,0,0,0,.01-3.906H248a1.953,1.953,0,0,0,0,3.906Z" transform="translate(-197.994 -142.724)"></path>
    <path id="Path_193" data-name="Path 193" d="M193.079,193.735a1.953,1.953,0,0,0-1.785,3.475,13.281,13.281,0,1,1-11.78-.166,1.953,1.953,0,1,0-1.686-3.524,17.187,17.187,0,1,0,15.251.215Z" transform="translate(-135.228 -148.836)"></path>
    <path id="Path_194" data-name="Path 194" d="M211.049,246.239a5.384,5.384,0,0,0,0,10.74c1.582,0,3.374-1.3,4.769-2.588,1.395,1.293,3.187,2.588,4.769,2.588a5.384,5.384,0,0,0,0-10.74c-1.582,0-3.374,1.3-4.769,2.588C214.423,247.534,212.631,246.239,211.049,246.239ZM211,253.071a1.548,1.548,0,0,1,0-2.924,7.471,7.471,0,0,1,2.053,1.461A7.612,7.612,0,0,1,211,253.071Zm9.641-2.924a1.548,1.548,0,0,1,0,2.924,7.486,7.486,0,0,1-2.053-1.462A7.5,7.5,0,0,1,220.637,250.147Z" transform="translate(-165.808 -191.413)"></path>
  </g>
</svg>
