<?xml version="1.0" encoding="UTF-8"?>
<svg xmlns="http://www.w3.org/2000/svg" width="100" height="100" viewBox="0 0 100 100">
  <g id="_020-solidarity" data-name="020-solidarity" transform="translate(0.001 0)">
    <path id="Path_320" data-name="Path 320" d="M74.842,283.88l-5.478-31.065-13.849,2.442,5.808,33.678Z" transform="translate(-44.674 -203.437)" fill="#bebebe"></path>
    <path id="Path_321" data-name="Path 321" d="M18.931,152.1h0l-5.9,1.041L10.093,136.5a5.989,5.989,0,0,1,3.8-6.65l3.452-1.289a2.16,2.16,0,0,0,1.371-2.4l-.179-1.016,5.428-.957.179,1.016a2.159,2.159,0,0,0,2.108,1.784l3.686.03a5.989,5.989,0,0,1,5.848,4.949l2.935,16.642-5.9,1.041h0Z" transform="translate(-8.049 -99.931)" fill="#78d2fa"></path>
    <path id="Path_322" data-name="Path 322" d="M51.268,126.16l-.179-1.016,5.428-.957L56.7,125.2a2.16,2.16,0,0,0,1.547,1.705l-2.484,7.312-5.309-5.97A2.159,2.159,0,0,0,51.268,126.16Z" transform="translate(-40.597 -99.932)" fill="#ffcdac"></path>
    <path id="Path_323" data-name="Path 323" d="M28.054,37.6h0a7.031,7.031,0,0,0-5.7,8.145l.294,1.667,3.386-.6a7.725,7.725,0,0,0,5.351-3.75h0l5.112,1.9L36.2,43.305A7.031,7.031,0,0,0,28.054,37.6Z" transform="translate(-17.899 -30.171)" fill="#878791"></path>
    <path id="Path_324" data-name="Path 324" d="M27.686,69.78a7.719,7.719,0,0,0,3.032-1.242l2.319-2.508,3.823,1.425,1.288.48.213,1.21a7.031,7.031,0,0,1-5.7,8.145h0a7.031,7.031,0,0,1-8.145-5.7l-.213-1.21Z" transform="translate(-19.554 -53.133)" fill="#ffcdac"></path>
    <path id="Path_325" data-name="Path 325" d="M357.533,283.88l5.478-31.065,13.849,2.442-5.808,33.678Z" transform="translate(-287.703 -203.437)" fill="#bebebe"></path>
    <path id="Path_326" data-name="Path 326" d="M374.73,152.1h0l5.9,1.041,2.935-16.643a5.989,5.989,0,0,0-3.8-6.65l-3.452-1.289a2.159,2.159,0,0,1-1.371-2.4l.179-1.016-5.428-.957-.179,1.016a2.159,2.159,0,0,1-2.109,1.784l-3.686.03a5.989,5.989,0,0,0-5.848,4.949l-2.935,16.642,5.9,1.041h0Z" transform="translate(-285.613 -99.931)" fill="#f5b955"></path>
    <g id="Group_46" data-name="Group 46" transform="translate(43.749 62.695)">
      <rect id="Rectangle_24" data-name="Rectangle 24" width="6.25" height="15.449" fill="#ffcdac"></rect>
      <rect id="Rectangle_25" data-name="Rectangle 25" width="6.25" height="15.449" transform="translate(6.275)" fill="#ffcdac"></rect>
    </g>
    <path id="Path_327" data-name="Path 327" d="M214.59,242.139h10.1l-3.2-19.14H208l-3.373,19.14h10.1" transform="translate(-164.659 -179.444)" fill="#78d2fa"></path>
    <path id="Path_328" data-name="Path 328" d="M222.256,34.5V20.815A10.815,10.815,0,0,0,211.441,10h0a10.815,10.815,0,0,0-10.815,10.815V34.5Z" transform="translate(-161.442 -8.047)" fill="#f5b955"></path>
    <path id="Path_329" data-name="Path 329" d="M239.945,70v3.155A5.146,5.146,0,0,1,234.8,78.3h0a5.146,5.146,0,0,1-5.146-5.146V70Z" transform="translate(-184.8 -56.328)" fill="#ffcdac"></path>
    <path id="Path_330" data-name="Path 330" d="M106.095,420A67.948,67.948,0,0,0,10,420Z" transform="translate(-8.049 -321.956)" fill="#a5dc69"></path>
    <path id="Path_331" data-name="Path 331" d="M211.85,117.36l-3.529-.653a2.1,2.1,0,0,1-1.72-2.068v-1h-5.23v1a2.1,2.1,0,0,1-1.72,2.068l-3.529.653a5.832,5.832,0,0,0-4.772,5.735v16.457h5.162l.8-4.557h13.492l.763,4.557h5.052V123.095A5.832,5.832,0,0,0,211.85,117.36Z" transform="translate(-153.977 -91.441)" fill="#ff8c8c"></path>
    <g id="Group_47" data-name="Group 47" transform="translate(45.819 22.195)">
      <path id="Path_332" data-name="Path 332" d="M238.779,122.363l4.183-5.692a2.1,2.1,0,0,1-1.56-2.031v-1h-5.23v1a2.1,2.1,0,0,1-1.574,2.034Z" transform="translate(-234.597 -113.636)" fill="#ffcdac"></path>
      <path id="Path_333" data-name="Path 333" d="M428.628,126.16l.179-1.016-5.428-.957L423.2,125.2a2.16,2.16,0,0,1-1.547,1.705l2.484,7.312,5.309-5.97A2.159,2.159,0,0,1,428.628,126.16Z" transform="translate(-385.119 -122.126)" fill="#ffcdac"></path>
    </g>
    <path id="Path_334" data-name="Path 334" d="M425.234,37.6h0a7.031,7.031,0,0,1,5.7,8.145l-.294,1.667-3.385-.6a7.725,7.725,0,0,1-5.351-3.75h0l-5.112,1.9.294-1.667A7.031,7.031,0,0,1,425.234,37.6Z" transform="translate(-335.39 -30.171)" fill="#878791"></path>
    <path id="Path_335" data-name="Path 335" d="M425.934,69.78a7.719,7.719,0,0,1-3.032-1.242l-2.319-2.508-3.824,1.425-1.288.48-.213,1.21a7.031,7.031,0,0,0,5.7,8.145h0a7.031,7.031,0,0,0,8.145-5.7l.213-1.21Z" transform="translate(-334.066 -53.133)" fill="#ffcdac"></path>
    <g id="Group_48" data-name="Group 48" transform="translate(81.441 14.116)">
      <path id="Path_336" data-name="Path 336" d="M417.066,72.271h0l-.085.479Z" transform="translate(-416.981 -72.271)" fill="#f5c86e"></path>
      <path id="Path_337" data-name="Path 337" d="M488.017,85.108l.059-.335h0Z" transform="translate(-474.143 -82.331)" fill="#f5c86e"></path>
    </g>
    <path id="Path_338" data-name="Path 338" d="M132.4,324.315a1.953,1.953,0,0,0-1.582,2.264l.014.079a1.953,1.953,0,1,0,3.846-.682l-.014-.078A1.953,1.953,0,0,0,132.4,324.315Z" transform="translate(-105.242 -260.948)"></path>
    <path id="Path_339" data-name="Path 339" d="M85.29,85.735l5.4-31.308,3.992.7a1.931,1.931,0,0,0,.339.03,1.953,1.953,0,0,0,1.923-1.614L99.878,36.9a7.942,7.942,0,0,0-5.043-8.819L91.383,26.8a.2.2,0,0,1-.06-.036h0a.206.206,0,0,1-.069-.192l.173-.979a9.051,9.051,0,0,0,1.907-1.04,9.206,9.206,0,0,0,3.662-5.922l.3-1.729v0l.146-.827A9.186,9.186,0,0,0,95.93,9.129,8.984,8.984,0,0,0,79.775,12.8l-.173.98h0l-.334,1.9a8.986,8.986,0,0,0,2.883,8.274L82,24.837a.37.37,0,0,1-.365.307l-3.544-.012A7.942,7.942,0,0,0,70.334,31.7L67.4,48.338A1.953,1.953,0,0,0,68.984,50.6l4,.705L68.175,78.581a69.4,69.4,0,0,0-9.948-1.909V64.648H60a1.992,1.992,0,0,0,.932-.216,1.958,1.958,0,0,0,1.029-2.059L59.9,50.065h2.745A1.953,1.953,0,0,0,64.6,48.112V31.654a7.769,7.769,0,0,0-1.839-5.023c.005-.06.009-.12.009-.181V12.962a12.769,12.769,0,1,0-25.536-.194V26.45a2,2,0,0,0,.01.2,7.77,7.77,0,0,0-1.822,5V48.112a1.953,1.953,0,0,0,1.953,1.953h2.747c.03,0,.059,0,.089,0l-2.167,12.3a1.956,1.956,0,0,0,.867,1.983,2.032,2.032,0,0,0,1.11.309H41.8V76.67a69.4,69.4,0,0,0-9.973,1.911l-1-5.655a1.953,1.953,0,0,0-3.847.678l1.077,6.107q-1.5.5-2.986,1.061l-4.98-28.246,3.078-.543,1.011,5.736A1.954,1.954,0,0,0,26.1,59.334a1.978,1.978,0,0,0,.331-.028,2.021,2.021,0,0,0,1.581-2.338l-1-5.662,4-.705A1.953,1.953,0,0,0,32.6,48.338L29.664,31.7a7.942,7.942,0,0,0-7.756-6.563L18.341,25.1A.349.349,0,0,1,18,24.815l-.153-.868a8.986,8.986,0,0,0,2.883-8.274l-.334-1.9h0l-.145-.824a9.19,9.19,0,0,0-3.707-5.945A8.984,8.984,0,0,0,4.007,9.216a9.19,9.19,0,0,0-1.451,6.854l.145.824v0l.334,1.9a8.985,8.985,0,0,0,5.537,6.788l.174.987a.218.218,0,0,1-.131.229L5.164,28.085A7.942,7.942,0,0,0,.121,36.9L3.055,53.548a1.953,1.953,0,0,0,2.263,1.584l3.992-.7,5.4,31.308A69.843,69.843,0,0,0,.572,96.666a1.953,1.953,0,0,0,2.762,2.762,66,66,0,0,1,93.331,0,1.953,1.953,0,1,0,2.762-2.762A69.825,69.825,0,0,0,85.29,85.735Zm-6.665-3.428,5.131-29.1,3.086.544-5.175,30.01Q80.166,83,78.624,82.307Zm8.609-60.073a5.084,5.084,0,0,1-4.119-5.883l.019-.109,2.654-.989a9.653,9.653,0,0,0,5.741,3.317l1.41.249A5.084,5.084,0,0,1,87.234,22.233ZM89.5,9.355a5.079,5.079,0,0,1,4.158,5.625l-1.456-.257a5.759,5.759,0,0,1-4-2.8,1.952,1.952,0,0,0-2.374-.855l-1.492.556A5.086,5.086,0,0,1,89.5,9.355ZM86.556,26.08q.405.071.811.106a4.1,4.1,0,0,0,.338,2.1L85.73,30.5l-.953-2.8a4.1,4.1,0,0,0,.982-1.8C86.02,25.971,86.285,26.032,86.556,26.08ZM74.181,32.373a4.036,4.036,0,0,1,3.941-3.335l2.976-.025,2.012,5.924a1.953,1.953,0,0,0,3.309.67l4.336-4.876,2.713,1.013a4.036,4.036,0,0,1,2.563,4.482l-2.6,14.719-2.056-.362,1.782-10.106a1.953,1.953,0,1,0-3.847-.678L87.532,49.9l-5.02-.885h0l-5.02-.885,1.782-10.106a1.953,1.953,0,1,0-3.847-.678L73.642,47.456l-2.056-.363Zm2.65,19.611,3.078.543-4.98,28.246q-1.484-.566-2.986-1.061ZM42.292,60.742l2.685-15.234h10.2l2.55,15.234H42.292Zm12.029,15.45H51.977V64.648h2.344ZM50,3.906a8.872,8.872,0,0,1,8.862,8.862V24.144c-.208-.056-.419-.106-.634-.146L54.7,23.346a.149.149,0,0,1-.122-.147v-.952a7.085,7.085,0,0,0,2.522-5.42V13.672a1.953,1.953,0,0,0-1.953-1.953H44.854A1.953,1.953,0,0,0,42.9,13.672v3.155a7.085,7.085,0,0,0,2.54,5.436V23.2a.15.15,0,0,1-.122.147L41.789,24c-.221.041-.438.091-.652.15V12.769A8.872,8.872,0,0,1,50,3.906Zm3.193,12.921a3.193,3.193,0,0,1-6.385,0v-1.2h6.385v1.2ZM49.287,23.89q.352.035.713.036a7.113,7.113,0,0,0,.731-.037,4.045,4.045,0,0,0,.744,1.729L50,27.624l-1.466-1.995A4.042,4.042,0,0,0,49.287,23.89ZM40.119,46.159h-.794v-14.5A3.879,3.879,0,0,1,42.5,27.84l2.475-.458,3.452,4.7a1.953,1.953,0,0,0,3.148,0l3.453-4.7,2.49.461a3.879,3.879,0,0,1,3.174,3.814v14.5H59.9a1.948,1.948,0,0,0-.633.107l-.481-2.874v-7.14a1.953,1.953,0,1,0-3.906,0V41.6H45.318v-5.35a1.953,1.953,0,1,0-3.906,0v6.981l-.542,3.076A1.947,1.947,0,0,0,40.119,46.159Zm7.927,18.489V76.192H45.7V64.648Zm-32.876-37L14.062,30.5l-1.791-2.161a4.1,4.1,0,0,0,.362-2.156q.4-.034.811-.105c.271-.048.536-.109.8-.179A4.1,4.1,0,0,0,15.17,27.644Zm-7.953-16.2a5.085,5.085,0,0,1,4.162-2.166,5.1,5.1,0,0,1,4.277,2.346l-1.492-.556a1.954,1.954,0,0,0-2.374.855,5.758,5.758,0,0,1-4,2.8l-1.456.257A5.041,5.041,0,0,1,7.216,11.443ZM7.06,18.819l1.41-.249a9.653,9.653,0,0,0,5.741-3.317l2.654.989.019.109A5.078,5.078,0,0,1,7.06,18.819ZM3.968,36.226a4.036,4.036,0,0,1,2.563-4.481l2.663-.994,3.984,4.806a1.953,1.953,0,0,0,3.325-.541l2.326-6,3.048.025a4.036,4.036,0,0,1,3.941,3.335l2.6,14.719-2.056.363L24.575,37.349a1.953,1.953,0,0,0-3.847.678L22.51,48.133l-5.02.885h0l-5.02.885L10.684,39.8a1.953,1.953,0,1,0-3.847.678L8.62,50.582l-2.056.362Zm9.189,17.523,3.086-.544,5.131,29.1q-1.541.691-3.042,1.452Z" transform="translate(0 0)"></path>
    <path id="Path_340" data-name="Path 340" d="M247.8,430.1H247.8a1.954,1.954,0,1,0-.01,3.907h.012a1.954,1.954,0,1,0,.006-3.906Z" transform="translate(-197.799 -346.095)"></path>
    <path id="Path_341" data-name="Path 341" d="M313.319,439.544a61.41,61.41,0,0,0-18.723-5.978,1.953,1.953,0,1,0-.58,3.863,57.505,57.505,0,0,1,17.534,5.6,1.953,1.953,0,1,0,1.769-3.483Z" transform="translate(-235.253 -348.868)"></path>
  </g>
</svg>
