<?xml version="1.0" encoding="UTF-8"?>
<svg xmlns="http://www.w3.org/2000/svg" id="_003-amex" data-name="003-amex" width="68.955" height="49.563" viewBox="0 0 68.955 49.563">
  <path id="Path_849" data-name="Path 849" d="M4.31,41.025H64.645a4.312,4.312,0,0,1,4.31,4.312V86.279a4.311,4.311,0,0,1-4.31,4.31H4.31A4.31,4.31,0,0,1,0,86.279V45.337A4.312,4.312,0,0,1,4.31,41.025Z" transform="translate(0 -41.025)" fill="#26a6d1"></path>
  <path id="Path_850" data-name="Path 850" d="M25.044,113.966l-6.809,15.069h8.152l1.011-2.4h2.31l1.011,2.4h8.973V127.2l.8,1.834h4.641l.8-1.872v1.872H64.592l2.269-2.34,2.125,2.34,9.585.019-6.831-7.512,6.831-7.577H69.135l-2.209,2.3-2.058-2.3h-20.3l-1.743,3.889-1.784-3.889H32.905v1.771l-.9-1.771Zm1.577,2.14H30.6l4.517,10.218V116.106h4.353l3.489,7.326,3.215-7.326H50.5v10.813H47.864l-.022-8.473L44,126.919H41.643l-3.864-8.473v8.473H32.358l-1.028-2.424H25.777l-1.026,2.422h-2.9Zm26.289,0H63.627l3.278,3.54,3.383-3.54h3.278l-4.98,5.435,4.98,5.372H70.139l-3.278-3.581-3.4,3.581H52.911V116.106Zm-24.356,1.829-1.829,4.318h3.657Zm27,.409v1.974H61.4v2.2H55.557v2.155h6.557l3.047-3.174-2.918-3.157H55.557Z" transform="translate(-13.925 -96.727)" fill="#fff"></path>
</svg>
