<?xml version="1.0" encoding="UTF-8"?>
<svg xmlns="http://www.w3.org/2000/svg" id="_004-payment-method" data-name="004-payment-method" width="84.623" height="76.028" viewBox="0 0 84.623 76.028">
  <g id="Group_116" data-name="Group 116" transform="translate(1.653 1.653)">
    <path id="Path_821" data-name="Path 821" d="M157.806,18.264l3.306,1.653,3.306-1.653,3.306,1.653,3.306-1.653,3.306,1.653V10H154.5v9.917Zm0,0" transform="translate(-130.617 -10)" fill="#fcac81" fill-rule="evenodd"></path>
    <path id="Path_822" data-name="Path 822" d="M40.494,19.917l-3.306-1.653-3.306,1.653V10H12.644A2.652,2.652,0,0,0,10,12.644V59.418a2.652,2.652,0,0,0,2.644,2.644H38.428V57.1H17.355a1.989,1.989,0,0,1-1.983-1.983V45.865a1.99,1.99,0,0,1,1.983-1.983H41.816A1.989,1.989,0,0,1,43.8,45.865v3.8H76.855V12.644A2.652,2.652,0,0,0,74.211,10H53.716v9.917l-3.306-1.653-3.306,1.653L43.8,18.264Zm0,0" transform="translate(-10 -10)" fill="#db8c60" fill-rule="evenodd"></path>
    <path id="Path_823" data-name="Path 823" d="M68.945,215H44.483a1.99,1.99,0,0,0-1.983,1.983v9.256a1.989,1.989,0,0,0,1.983,1.983H65.556v-4.131a3.315,3.315,0,0,1,3.306-3.306h2.066v-3.8A1.989,1.989,0,0,0,68.945,215Zm0,0" transform="translate(-37.128 -181.115)" fill="#f4f4f4" fill-rule="evenodd"></path>
    <path id="Path_824" data-name="Path 824" d="M128.5,257.437A7.437,7.437,0,0,0,135.938,250h-4.132a3.315,3.315,0,0,0-3.306,3.306Zm0,0" transform="translate(-108.914 -210.333)" fill="#73ca5b" fill-rule="evenodd"></path>
    <path id="Path_825" data-name="Path 825" d="M135.938,411.438A7.437,7.437,0,0,0,128.5,404v4.3a3.316,3.316,0,0,0,3.306,3.306h4.13Zm0,0" transform="translate(-108.914 -338.88)" fill="#73ca5b" fill-rule="evenodd"></path>
    <path id="Path_826" data-name="Path 826" d="M128.5,275.453a7.437,7.437,0,0,1,7.438,7.438l0,.165H182.8l0-.165a7.437,7.437,0,0,1,7.438-7.438V257.437A7.437,7.437,0,0,1,182.794,250H135.938a7.437,7.437,0,0,1-7.438,7.437Zm0,0" transform="translate(-108.914 -210.333)" fill="#a6f074" fill-rule="evenodd"></path>
    <path id="Path_827" data-name="Path 827" d="M457,250a7.437,7.437,0,0,0,7.438,7.437v-4.131A3.315,3.315,0,0,0,461.132,250Zm0,0" transform="translate(-383.12 -210.333)" fill="#73ca5b" fill-rule="evenodd"></path>
    <path id="Path_828" data-name="Path 828" d="M464.438,404A7.437,7.437,0,0,0,457,411.438l0,.165h4.129a3.315,3.315,0,0,0,3.306-3.306Zm0,0" transform="translate(-383.12 -338.88)" fill="#73ca5b" fill-rule="evenodd"></path>
  </g>
  <path id="Path_829" data-name="Path 829" d="M79.664,39.667h-9.5V4.3a4.3,4.3,0,0,0-4.3-4.3H19.172a1.653,1.653,0,1,0,0,3.306h4.71V11.57a1.653,1.653,0,0,0,2.392,1.478l2.566-1.283,2.566,1.283a1.655,1.655,0,0,0,1.478,0l2.566-1.283,2.566,1.283a1.653,1.653,0,0,0,1.478,0l2.567-1.283,2.566,1.283a1.653,1.653,0,0,0,2.392-1.478V3.306H65.863a1,1,0,0,1,.992.992v35.37H37.105V37.518a3.64,3.64,0,0,0-3.636-3.636H9.008a3.641,3.641,0,0,0-3.636,3.636v9.256a3.64,3.64,0,0,0,3.636,3.636H19.586v1.653H4.3a1,1,0,0,1-.992-.992V4.3A1,1,0,0,1,4.3,3.306H7.774A1.653,1.653,0,0,0,7.774,0H4.3A4.3,4.3,0,0,0,0,4.3V51.071a4.3,4.3,0,0,0,4.3,4.3H19.586v15.7a4.964,4.964,0,0,0,4.958,4.958H79.664a4.964,4.964,0,0,0,4.958-4.958V44.625A4.964,4.964,0,0,0,79.664,39.667ZM43.716,8.9,42.8,8.438a1.653,1.653,0,0,0-1.478,0L38.758,9.722,36.192,8.438a1.653,1.653,0,0,0-1.478,0L32.147,9.722,29.58,8.438a1.653,1.653,0,0,0-1.478,0l-.914.457V3.306H43.716ZM76.741,67.6h-6.1a1.653,1.653,0,0,0,0,3.306H74.5a8.982,8.982,0,0,0-.5,1.819H30.2a9.11,9.11,0,0,0-7.314-7.45V50.256a9.112,9.112,0,0,0,7.285-7.284H74.033a9.111,9.111,0,0,0,7.284,7.284V65.273A9.073,9.073,0,0,0,76.741,67.6ZM22.891,46.862V44.625a1.655,1.655,0,0,1,1.653-1.653h2.238A5.808,5.808,0,0,1,22.891,46.862Zm58.426-2.237v2.237a5.808,5.808,0,0,1-3.89-3.89h2.237A1.654,1.654,0,0,1,81.317,44.625ZM8.677,46.773V37.518a.335.335,0,0,1,.331-.331H33.469a.335.335,0,0,1,.331.331v2.149H24.544a4.964,4.964,0,0,0-4.958,4.958V47.1H9.008A.335.335,0,0,1,8.677,46.773Zm14.214,24.3v-2.4a5.807,5.807,0,0,1,3.937,4.056H24.544A1.655,1.655,0,0,1,22.891,71.07Zm56.773,1.653H77.38a5.808,5.808,0,0,1,3.937-4.056v2.4A1.655,1.655,0,0,1,79.664,72.723Zm0,0"></path>
  <path id="Path_830" data-name="Path 830" d="M46.153,175a1.653,1.653,0,1,0,0,3.306h6.033a1.653,1.653,0,1,0,0-3.306Zm0,0" transform="translate(-37.145 -146.073)"></path>
  <path id="Path_831" data-name="Path 831" d="M59.871,146.649A1.653,1.653,0,0,0,58.218,145H46.153a1.653,1.653,0,0,0,0,3.306H58.218A1.653,1.653,0,0,0,59.871,146.649Zm0,0" transform="translate(-37.145 -121.031)"></path>
  <path id="Path_832" data-name="Path 832" d="M67.418,3.306h.045a1.653,1.653,0,1,0,0-3.306h-.045a1.653,1.653,0,0,0,0,3.306Zm0,0" transform="translate(-54.896)"></path>
  <path id="Path_833" data-name="Path 833" d="M269.286,289.916H258.661a1.535,1.535,0,0,1,0-3.07h9.874a1.653,1.653,0,0,0,0-3.306h-2.909v-1.888a1.653,1.653,0,1,0-3.306,0v1.888h-3.659a4.841,4.841,0,1,0,0,9.681h3.659v3.069h-2.91a1.653,1.653,0,1,0,0,3.306h2.91v1.889a1.653,1.653,0,1,0,3.306,0V299.6h3.659a4.841,4.841,0,1,0,0-9.681Zm0,6.375h-3.66v-3.069h3.66a1.535,1.535,0,0,1,0,3.069Zm0,0" transform="translate(-211.869 -233.722)"></path>
  <path id="Path_834" data-name="Path 834" d="M390.152,409h-.039a1.653,1.653,0,1,0,0,3.306h.039a1.653,1.653,0,1,0,0-3.306Zm0,0" transform="translate(-324.257 -341.401)"></path>
</svg>
