<?xml version="1.0" encoding="UTF-8"?>
<svg xmlns="http://www.w3.org/2000/svg" xmlns:xlink="http://www.w3.org/1999/xlink" width="56.647" height="60" viewBox="0 0 56.647 60">
  <defs>
    <linearGradient id="linear-gradient" x1="0.669" y1="0.028" x2="0.31" y2="0.959" gradientUnits="objectBoundingBox">
      <stop offset="0" stop-color="#16ff03"></stop>
      <stop offset="1" stop-color="#42db1d"></stop>
    </linearGradient>
  </defs>
  <path id="Path_853" data-name="Path 853" d="M48.56,79.258c-.03.19-6.578-12.258-.639-24.448S71.343,38.788,75.236,36.362c4.593,6.768,3.7,23.3-3.893,31.725S52.134,79.258,52.134,79.258s4.274-16.593,10.593-24.319C53.853,61.068,49.26,74.6,48.56,79.258Zm4.152-44.744a46.083,46.083,0,0,1-.3,11.5,46.083,46.083,0,0,1,11.186-6.661A47.407,47.407,0,0,0,60.75,29.26a36.288,36.288,0,0,0-6.083-10,74.175,74.175,0,0,0-10,10,29.582,29.582,0,0,0-5.475,11.323,30.417,30.417,0,0,1,9.619,5.688c.357-2.3,1.506-8.205,3.9-11.756Zm-9.445,28.2C41.77,59.35,32.287,50.7,32.287,50.7c3.566,1.179,8.061,5.6,11.368,9.764a25.221,25.221,0,0,1,4.852-10.5c.236-.289.479-.563.722-.844-8.5-9.475-27.718-9.566-27.718-9.566-1.6,23.589,13.034,35.672,23.9,39.6a33.557,33.557,0,0,1-2.152-16.44Z" transform="translate(-21.39 -19.26)" fill="url(#linear-gradient)"></path>
</svg>
