<?xml version="1.0" encoding="UTF-8"?>
<svg xmlns="http://www.w3.org/2000/svg" id="_003-umbrella" data-name="003-umbrella" width="84.623" height="84.62" viewBox="0 0 84.623 84.62">
  <g id="Group_115" data-name="Group 115" transform="translate(1.655 1.653)">
    <path id="Path_812" data-name="Path 812" d="M15.305,50.657,50.673,15.289,86.041,50.657,50.673,86.025ZM54.4,11.538a5.288,5.288,0,0,0-7.456,0L11.553,46.929a5.288,5.288,0,0,0,0,7.456L46.945,89.776a5.288,5.288,0,0,0,7.456,0L89.792,54.385a5.288,5.288,0,0,0,0-7.456Zm0,0" transform="translate(-10.016 -10)" fill="#fd4848" fill-rule="evenodd"></path>
    <path id="Path_813" data-name="Path 813" d="M42.016,77.372,77.383,42l35.368,35.368L77.383,112.739Zm0,0" transform="translate(-36.727 -36.714)" fill="#ffd777" fill-rule="evenodd"></path>
    <path id="Path_814" data-name="Path 814" d="M178.242,160.113a15.942,15.942,0,0,0-15.4,11.816,5.445,5.445,0,0,1,7.7,0,5.445,5.445,0,0,1,7.7,0,5.446,5.446,0,0,1,7.7,0,5.445,5.445,0,0,1,7.7,0A15.943,15.943,0,0,0,178.242,160.113Zm0,0" transform="translate(-137.584 -135.303)" fill="#00c9af" fill-rule="evenodd"></path>
  </g>
  <path id="Path_815" data-name="Path 815" d="M53.235,184.322a1.647,1.647,0,0,0,1.169-.484l.032-.032a1.653,1.653,0,0,0-2.338-2.337l-.031.032a1.653,1.653,0,0,0,1.169,2.821Zm0,0" transform="translate(-43.057 -151.071)"></path>
  <path id="Path_816" data-name="Path 816" d="M82.6,37.413,47.211,2.022a6.941,6.941,0,0,0-9.794,0l-23.7,23.7a1.653,1.653,0,1,0,2.337,2.337l23.7-23.7a3.635,3.635,0,0,1,5.118,0L80.264,39.75a3.634,3.634,0,0,1,0,5.119L44.873,80.26a3.636,3.636,0,0,1-5.119,0L4.363,44.869a3.624,3.624,0,0,1,0-5.119L7.99,36.124a1.653,1.653,0,0,0-2.338-2.337L2.025,37.413a6.934,6.934,0,0,0,0,9.793L37.417,82.6a6.875,6.875,0,0,0,4.9,2.022h0a6.875,6.875,0,0,0,4.9-2.022L82.6,47.207a6.94,6.94,0,0,0,0-9.793Zm0,0" transform="translate(-0.001 0)"></path>
  <path id="Path_817" data-name="Path 817" d="M32.5,70.19l35.368,35.368a1.652,1.652,0,0,0,2.337,0L105.577,70.19a1.652,1.652,0,0,0,0-2.337L70.209,32.484a1.652,1.652,0,0,0-2.337,0L32.5,67.852A1.653,1.653,0,0,0,32.5,70.19ZM69.04,35.99l33.031,33.031L69.04,102.052,36.009,69.021Zm0,0" transform="translate(-26.728 -26.711)"></path>
  <path id="Path_818" data-name="Path 818" d="M372.157,298.656a1.646,1.646,0,0,0,1.169-.484l.028-.027a1.653,1.653,0,0,0-2.337-2.338l-.028.028a1.653,1.653,0,0,0,1.169,2.821Zm0,0" transform="translate(-309.268 -246.513)"></path>
  <path id="Path_819" data-name="Path 819" d="M392.637,254.092a1.65,1.65,0,0,0,1.169-.484l4.8-4.8a1.653,1.653,0,1,0-2.337-2.338l-4.8,4.8a1.652,1.652,0,0,0,1.169,2.821Zm0,0" transform="translate(-326.363 -205.334)"></path>
  <path id="Path_820" data-name="Path 820" d="M171.556,180.815V164.345a3.785,3.785,0,0,1,4.877.4h0c.01.01.021.018.031.028.025.023.05.046.076.068l.054.043.068.05.063.042.066.039.068.037.072.034c.023.01.044.02.066.028s.058.021.087.03l.056.019c.037.011.076.019.114.028l.034.008a1.637,1.637,0,0,0,.309.03h0a1.691,1.691,0,0,0,.2-.013l.023,0,.041-.008c.031,0,.062-.01.093-.017l.07-.017c.029-.007.057-.016.086-.025l.072-.025.078-.032.072-.034.071-.037.072-.043.064-.042.072-.053c.019-.015.038-.03.057-.046s.046-.041.068-.062.022-.019.032-.029a3.792,3.792,0,0,1,5.363,0c.012.012.024.021.036.032s.046.043.07.063l.063.05.062.045.078.05.056.034c.028.015.057.03.086.044l.057.027c.029.012.057.024.087.034l.066.023.08.023.079.019.071.014c.03.005.06.01.09.013l.066.006c.031,0,.063,0,.094,0l.026,0,.041,0c.03,0,.06,0,.09,0l.08-.009.076-.011c.032-.006.065-.013.1-.021l.043-.01.016-.005c.035-.01.07-.021.1-.034l.052-.018c.032-.012.063-.027.094-.041l.058-.027c.025-.013.05-.028.074-.042s.047-.026.07-.041l.057-.04c.026-.019.053-.037.078-.057s.03-.026.046-.039.053-.046.078-.07c0,0,.009-.008.014-.012s.021-.023.031-.035.044-.046.065-.071.033-.041.049-.063.032-.041.046-.063.034-.051.05-.077l.034-.057c.015-.028.03-.057.044-.085s.019-.039.027-.058.024-.057.034-.087.016-.044.023-.066.017-.053.024-.08.013-.052.019-.079.01-.048.014-.072.009-.059.012-.088,0-.045.006-.067,0-.061,0-.092,0-.047,0-.07,0-.058,0-.088-.006-.054-.009-.081-.006-.05-.011-.075-.013-.066-.021-.1c0-.014-.006-.028-.009-.043l-.008-.027-.008-.028a17.593,17.593,0,0,0-33.958,0l-.008.027c0,.01-.005.019-.008.028s-.006.029-.009.043c-.008.033-.016.065-.021.1s-.008.05-.011.075-.006.054-.009.081,0,.059,0,.088,0,.046,0,.069,0,.062,0,.093,0,.045.006.066.008.06.013.09.008.048.014.071.012.054.019.079.015.053.023.079.015.045.023.068.022.056.034.085.018.04.028.06.028.056.043.083l.035.059c.016.025.032.05.048.075l.048.065c.015.021.031.041.048.061s.044.05.066.074.019.023.03.033a.11.11,0,0,0,.013.012c.025.025.052.049.08.072s.028.026.044.038.052.039.079.058.037.027.056.039l.071.041c.024.014.048.029.074.041s.039.019.059.028.061.028.093.041l.053.019c.034.012.069.024.1.034l.016.005.028.006c.05.012.1.023.153.03l.057.008a1.665,1.665,0,0,0,.17.011h.02c.052,0,.1,0,.153-.008l.023,0q.062-.007.122-.017l.047-.01.094-.023.058-.017c.027-.008.054-.018.08-.028l.063-.024.077-.036.078-.04c.034-.018.067-.037.1-.059.016-.01.032-.022.048-.034s.054-.037.079-.057l.041-.034c.03-.025.057-.05.085-.077l.019-.017a3.791,3.791,0,0,1,5.362,0l.032.03c.023.021.045.042.069.062l.024.022.033.024c.023.018.046.035.071.052l.064.042.072.043c.023.014.047.026.071.037s.048.023.072.034.052.022.078.032l.072.025.086.025.07.017c.031.007.062.012.093.017l.042.008.028,0,.09.007.077,0,.077,0c.03,0,.059,0,.087,0l.066-.008c.032,0,.063-.008.094-.014l.061-.014c.032-.007.063-.014.094-.023s.043-.014.063-.021.058-.019.087-.03l.067-.03.078-.036.066-.037.074-.044.058-.04c.026-.018.052-.037.076-.056l.017-.012c.01-.009.02-.019.03-.028.026-.023.053-.046.077-.07l.017-.016a3.784,3.784,0,0,1,4.878-.405v16.47a.992.992,0,0,1-1.983,0,1.653,1.653,0,1,0-3.306,0,4.3,4.3,0,0,0,8.594,0Zm0-20.133v-6.674c1.424.983,2.852,3.186,3.752,6.5a7.132,7.132,0,0,0-3.752.175Zm10.6-.312c-.234-.023-.47-.034-.708-.034a7.08,7.08,0,0,0-2.659.514,21.713,21.713,0,0,0-2.054-5.682A14.346,14.346,0,0,1,182.159,160.369Zm-24.513,0a14.348,14.348,0,0,1,5.421-5.2,21.713,21.713,0,0,0-2.055,5.682,7.091,7.091,0,0,0-2.659-.514C158.117,160.335,157.88,160.346,157.647,160.369Zm6.851.138c.9-3.314,2.329-5.516,3.752-6.5v6.674a7.132,7.132,0,0,0-3.752-.175Zm0,0" transform="translate(-127.59 -125.303)"></path>
</svg>
