<?xml version="1.0" encoding="UTF-8"?>
<svg xmlns="http://www.w3.org/2000/svg" id="_001-place" data-name="001-place" width="84.623" height="84.623" viewBox="0 0 84.623 84.623">
  <path id="Path_789" data-name="Path 789" d="M33.886,37.2a3.2,3.2,0,0,0-3.2-3.2H13.07A3.07,3.07,0,0,0,10,37.07v.545a3.07,3.07,0,0,0,3.07,3.07h1.52a3.07,3.07,0,0,1,0,6.14H13.07A3.07,3.07,0,0,0,10,49.895v.538a3.07,3.07,0,0,0,3.07,3.07H37.089a6.335,6.335,0,0,0,6.335-6.335v-.427a6.335,6.335,0,0,0-6.335-6.335A3.2,3.2,0,0,1,33.886,37.2Zm0,0" transform="translate(-8.347 -28.381)" fill="#c9f3ff"></path>
  <path id="Path_790" data-name="Path 790" d="M130.547,40.973A30.973,30.973,0,1,0,75.554,60.527h0l24.022,30.79,23.908-30.629h-.018A30.85,30.85,0,0,0,130.547,40.973Zm0,0" transform="translate(-57.263 -8.347)" fill="#ff5d5d"></path>
  <path id="Path_791" data-name="Path 791" d="M178.271,103.472a19.19,19.19,0,1,1-19.19-19.19A19.191,19.191,0,0,1,178.271,103.472Zm0,0" transform="translate(-116.77 -70.351)" fill="#fff"></path>
  <path id="Path_792" data-name="Path 792" d="M273.32,327.305a3.8,3.8,0,0,0,3.8,3.8h20.9a3.643,3.643,0,0,0,3.643-3.643v-.647a3.643,3.643,0,0,0-3.643-3.643h-1.8a3.643,3.643,0,0,1,0-7.286h1.8a3.643,3.643,0,0,0,3.643-3.643V311.6a3.643,3.643,0,0,0-3.643-3.643H269.518A7.519,7.519,0,0,0,262,315.479v.506a7.519,7.519,0,0,0,7.518,7.518A3.8,3.8,0,0,1,273.32,327.305Zm0,0" transform="translate(-218.697 -257.061)" fill="#c9f3ff"></path>
  <path id="Path_793" data-name="Path 793" d="M77.523,60.478h1.8a5.3,5.3,0,0,0,5.3-5.3v-.639a5.3,5.3,0,0,0-5.3-5.3H70.392A32.63,32.63,0,0,0,42.312,0h-.06A32.294,32.294,0,0,0,25.173,4.882a4.816,4.816,0,0,0-2.838-.915H4.723A4.728,4.728,0,0,0,0,8.689v.545a4.728,4.728,0,0,0,4.723,4.723h1.52a1.417,1.417,0,0,1,0,2.834H4.723A4.728,4.728,0,0,0,0,21.514v.538a4.728,4.728,0,0,0,4.723,4.723h5.49A32.648,32.648,0,0,0,16.96,53.163l.026.034L38.926,81.317H26.059a1.653,1.653,0,1,0,0,3.306H61.5a1.653,1.653,0,1,0,0-3.306H45.7l7.48-9.584A5.463,5.463,0,0,0,58.424,75.7h20.9a5.3,5.3,0,0,0,5.3-5.3v-.647a5.3,5.3,0,0,0-5.3-5.3h-1.8a1.99,1.99,0,0,1,0-3.981ZM4.723,23.47a1.419,1.419,0,0,1-1.417-1.417v-.538A1.419,1.419,0,0,1,4.723,20.1h1.52a4.723,4.723,0,0,0,0-9.445H4.723A1.419,1.419,0,0,1,3.306,9.234V8.689A1.419,1.419,0,0,1,4.723,7.272h17.1a33.673,33.673,0,0,0-2.66,2.408,32.557,32.557,0,0,0-8.173,13.79Zm14.85,27.666a29.255,29.255,0,0,1,1.941-39.128,29.1,29.1,0,0,1,20.744-8.7h.054A29.323,29.323,0,0,1,66.469,49.247H55.5a20.832,20.832,0,1,0-13.191,4.717c.167,0,.334,0,.5-.006a9.108,9.108,0,0,0-1.162,4.461v.506a9.182,9.182,0,0,0,9.171,9.171,2.134,2.134,0,0,1,.862.182L42.312,80.284,19.639,51.224C19.618,51.193,19.6,51.164,19.573,51.135Zm27.9-1.253a17.531,17.531,0,1,1,.866-.291Q47.9,49.716,47.472,49.883ZM77.523,67.764h1.8a1.993,1.993,0,0,1,1.99,1.99V70.4a1.993,1.993,0,0,1-1.99,1.99h-20.9a2.151,2.151,0,0,1-2.149-2.149,5.461,5.461,0,0,0-5.454-5.454,5.873,5.873,0,0,1-5.865-5.865v-.506a5.873,5.873,0,0,1,3.6-5.41q.4-.127.793-.269a5.873,5.873,0,0,1,1.47-.187H79.327a1.993,1.993,0,0,1,1.99,1.99v.639a1.993,1.993,0,0,1-1.99,1.99h-1.8a5.3,5.3,0,0,0,0,10.592Zm0,0"></path>
  <path id="Path_794" data-name="Path 794" d="M104.653,492a1.653,1.653,0,1,0,1.169.484A1.666,1.666,0,0,0,104.653,492Zm0,0" transform="translate(-85.976 -410.683)"></path>
  <path id="Path_795" data-name="Path 795" d="M261.333,131.3a13.7,13.7,0,0,0-13.68-13.68,1.653,1.653,0,0,0,0,3.306A10.386,10.386,0,0,1,258.027,131.3a1.653,1.653,0,1,0,3.306,0Zm0,0" transform="translate(-205.341 -98.181)"></path>
  <path id="Path_796" data-name="Path 796" d="M202.553,132.584l-.073.056a1.653,1.653,0,1,0,2.007,2.627l.058-.044a1.653,1.653,0,1,0-1.992-2.639Zm0,0" transform="translate(-168.472 -110.392)"></path>
</svg>
