<?xml version="1.0" encoding="UTF-8"?>
<svg xmlns="http://www.w3.org/2000/svg" id="Layer_1" data-name="Layer 1" width="216.689" height="160" viewBox="0 0 216.689 160">
  <g id="Group_166" data-name="Group 166" transform="translate(0)">
    <path id="Path_854" data-name="Path 854" d="M19.494,160.042c-1.258,0-2.4-.879-2.4-2.86,0-2.975-.264-11.062-.649-15.525-.156.419-.3,1.488-.534,2.515L13.429,155.58a36.864,36.864,0,0,1-1.258,4.463H10.8c-1.3,0-2.482-1.528-3.394-5.72L4.693,142.077c-.419,5.3-.69,13.2-.69,17.966H2.745c-1.907,0-2.745-.609-2.745-2.711a228.063,228.063,0,0,1,1.447-23.578H3.313c2.062,0,3.32,1.562,4.043,4.652l1.907,8.317c.609,2.745,1.068,4.733,1.373,6.6.23-1.258.46-2.975.913-5l2.062-8.7a22.356,22.356,0,0,1,2.022-5.876h1.183c1.947,0,3.164,1.373,3.435,4.922.534,6.484,1.028,15.565,1.028,21.36H19.487Zm10.034.46c-4,0-5.72-2.671-5.72-6.484s2.177-6.525,6.444-6.525h.879V146.35c0-2.745-.953-3.624-2.515-3.624a4.148,4.148,0,0,0-4.2,2.482h-.189V143.26c0-1.717,1.447-4.273,5.037-4.273s5.605,2.4,5.605,7.478v6.978c0,4.922-1.832,7.059-5.342,7.059Zm1.643-9.73h-.8c-1.873,0-2.786.994-2.786,2.975s.609,3.09,1.907,3.09c1.109,0,1.677-.879,1.677-2.9v-3.164ZM47.8,145.431c-.649-1.907-1.643-2.786-3.279-2.786-1.981,0-3.509,2.711-3.509,6.944,0,4.767,1.562,7.248,3.509,7.248a3.416,3.416,0,0,0,3.246-2.482h.115v1.873c0,2.671-1.643,4.348-4.118,4.348-3.7,0-6.674-4.043-6.674-10.379,0-6.978,2.711-11.218,7.133-11.218,2.326,0,3.739,1.792,3.739,4.422v1.981l-.156.041Zm13.009,14.612c-1.258,0-2.211-.723-2.211-2.482v-9.574c0-4.5-.723-5.267-2.177-5.267-1.332,0-2.252,1.224-2.252,4.882v12.435H52.416c-1.562,0-2.177-1.068-2.177-2.515V133.179h1.3a2.379,2.379,0,0,1,2.63,2.711v5.572a3.521,3.521,0,0,1,3.279-2.441c3.09,0,5.037,2.022,5.037,8.391v12.631H60.807Zm10.758.419c-3.78,0-5.916-2.4-5.916-7.783V139.44h1.6c1.447,0,2.292.879,2.292,2.6v10.6c0,3.205.649,4.118,2.211,4.118,1.339,0,2.022-.994,2.022-4.043V139.44h1.643c1.413,0,2.292.913,2.292,2.6V152.1c0,5.531-1.981,8.357-6.14,8.357Zm16.363,0a3.339,3.339,0,0,1-3.279-2.481v8.276h-1.3c-1.643,0-2.556-.838-2.556-2.671V150.042c0-7.248,2.177-11.028,6.41-11.028,4,0,6.369,3.435,6.369,10.149s-1.907,11.292-5.646,11.292Zm1.677-11.028c0-5.267-.994-6.674-2.63-6.674-1.528,0-2.326,2.1-2.326,6.484,0,5.416.879,7.553,2.671,7.553,1.488,0,2.292-2.1,2.292-7.059v-.3Zm8.885-12.36a2.252,2.252,0,1,1,2.252-2.252A2.255,2.255,0,0,1,98.5,137.073Zm2.211,23.273c-2.711,0-4.084-1.907-4.084-5.72V139.521h1.717a2.162,2.162,0,0,1,2.022,2.326v12.32c0,2.022.534,2.63,2.1,2.63h.649v1.373a2.093,2.093,0,0,1-2.4,2.177Zm14.423-14.916c-.649-1.907-1.643-2.786-3.279-2.786-1.981,0-3.509,2.711-3.509,6.944,0,4.767,1.562,7.248,3.509,7.248a3.416,3.416,0,0,0,3.246-2.482h.115v1.873c0,2.671-1.643,4.348-4.118,4.348-3.7,0-6.674-4.043-6.674-10.379,0-6.978,2.711-11.218,7.134-11.218,2.326,0,3.739,1.792,3.739,4.422v1.981l-.156.041Zm12.55,0c-.649-1.907-1.643-2.786-3.279-2.786-1.981,0-3.509,2.711-3.509,6.944,0,4.767,1.562,7.248,3.509,7.248a3.416,3.416,0,0,0,3.246-2.482h.115v1.873c0,2.671-1.643,4.348-4.118,4.348-3.7,0-6.674-4.043-6.674-10.379,0-6.978,2.711-11.218,7.134-11.218,2.326,0,3.739,1.792,3.739,4.422v1.981l-.156.041Zm13.009,14.612c-1.258,0-2.211-.723-2.211-2.482v-9.574c0-4.5-.723-5.267-2.177-5.267-1.332,0-2.252,1.224-2.252,4.882v12.435h-1.758c-1.562,0-2.177-1.068-2.177-2.515V133.179h1.3a2.379,2.379,0,0,1,2.63,2.711v5.572a3.521,3.521,0,0,1,3.279-2.441c3.09,0,5.037,2.022,5.037,8.391v12.631h-1.677Zm10.758.419c-3.78,0-5.916-2.4-5.916-7.783V139.44h1.6c1.447,0,2.292.879,2.292,2.6v10.6c0,3.205.649,4.118,2.211,4.118,1.332,0,2.022-.994,2.022-4.043V139.44H155.3c1.413,0,2.292.913,2.292,2.6V152.1c0,5.531-1.981,8.357-6.14,8.357Zm21.171-10.149a3.791,3.791,0,0,1-1.947-.494v10.224h-1.447c-1.677,0-2.6-.764-2.6-2.786V134.632a12.288,12.288,0,0,1,5.572-1.068c4.084,0,6.944,2.671,6.944,8.046,0,5.72-2.556,8.7-6.525,8.7Zm-.345-13.124a7.389,7.389,0,0,0-1.6.23v8.851a4,4,0,0,0,1.792.379c1.413,0,2.63-1.373,2.63-4.618,0-3.7-1.028-4.848-2.82-4.848Zm14.308,14.233h-2.137c.041,3.584,1.373,5.3,3.509,5.3a3.932,3.932,0,0,0,3.854-2.1h.156v1.6c0,2.252-1.258,4.273-4.693,4.273-3.854,0-6.714-3.7-6.714-10.379,0-7.093,2.711-11.1,6.6-11.1,3.361,0,5.49,3.049,5.49,7.323,0,4.043-1.981,5.071-6.065,5.071Zm.3-8.777c-1.447,0-2.441,2.022-2.441,5.186v.494h1.488c2.482,0,3.049-.649,3.049-2.062,0-2.252-.69-3.624-2.1-3.624Zm15.984.994a2.286,2.286,0,0,0-1.758-.838c-1.488,0-2.1,1.258-2.1,4.158v13.084h-1.528a2.218,2.218,0,0,1-2.367-2.482V147.033c0-5.037,1.643-7.972,5.037-7.972a2.572,2.572,0,0,1,2.82,2.786v1.792h-.115Zm7.668,16.823c-3.78,0-5.91-2.4-5.91-7.783V139.44h1.6c1.447,0,2.292.879,2.292,2.6v10.6c0,3.205.649,4.118,2.211,4.118,1.332,0,2.022-.994,2.022-4.043V139.44H214.4c1.413,0,2.292.913,2.292,2.6V152.1c0,5.531-1.981,8.357-6.14,8.357Zm2.062-25.37a5.13,5.13,0,0,1-3.164,1.832h-.575v-.189a21.638,21.638,0,0,1,1.528-4.084c.69-1.373,1.373-1.981,2.211-1.981a1.294,1.294,0,0,1,1.413,1.488,4.365,4.365,0,0,1-1.413,2.935ZM59.475,196.4c-2.1,0-3.354-1.339-3.354-2.745v-1.528h.156a5.3,5.3,0,0,0,2.482.69c1.758,0,2.4-.649,2.4-3.55V169.732h1.413c1.792,0,2.63.69,2.63,2.6v16.782c0,4.882-1.866,7.289-5.72,7.289Zm15.18.074c-4.348,0-6.336-4.537-6.336-10.6,0-6.755,2.211-10.913,6.525-10.913s6.336,3.888,6.336,10.528S79,196.474,74.655,196.474Zm0-17.776c-1.488,0-2.441,1.832-2.441,6.714,0,5.227.764,7.323,2.63,7.323,1.528,0,2.441-1.866,2.441-6.714C77.285,180.219,76.372,178.7,74.655,178.7ZM89.612,196.44c-3.78,0-5.91-2.4-5.91-7.783V175.418h1.6c1.447,0,2.292.879,2.292,2.6v10.6c0,3.205.649,4.118,2.211,4.118,1.339,0,2.022-.994,2.022-4.043V175.418h1.643c1.413,0,2.292.913,2.292,2.6v10.068c0,5.531-1.981,8.357-6.14,8.357Zm16.978-16.823a2.286,2.286,0,0,0-1.758-.838c-1.488,0-2.1,1.258-2.1,4.158v13.084h-1.528a2.218,2.218,0,0,1-2.367-2.482V183.012c0-5.037,1.643-7.972,5.037-7.972a2.572,2.572,0,0,1,2.82,2.786v1.792h-.115Zm12.245,16.4c-1.3,0-2.177-.69-2.177-2.63v-9.73c0-4.314-.723-4.956-2.252-4.956-1.3,0-2.137.724-2.137,4.733v12.59h-1.792c-1.373,0-2.137-.8-2.137-2.63v-9.73c0-5.916,2.1-8.662,6.18-8.662,3.584,0,6.065,2.211,6.065,8.317v12.705h-1.758Zm10.3-8.621H127c.041,3.584,1.373,5.3,3.509,5.3a3.932,3.932,0,0,0,3.854-2.1h.156v1.6c0,2.252-1.258,4.273-4.693,4.273-3.854,0-6.714-3.7-6.714-10.379,0-7.093,2.711-11.1,6.6-11.1,3.361,0,5.49,3.049,5.49,7.323,0,4.043-1.981,5.071-6.065,5.071Zm.3-8.777c-1.447,0-2.441,2.022-2.441,5.186v.494h1.488c2.482,0,3.049-.649,3.049-2.062,0-2.252-.69-3.624-2.1-3.624Zm19.3,1.109c-.8,4.043-1.907,9.115-3.016,12.854-1.258,4.388-2.1,7.019-3.469,8.472a3.607,3.607,0,0,1-2.786,1.258c-1.792,0-2.63-.8-2.63-2.137v-1.258h1.183a1.814,1.814,0,0,0,1.866-.994,13.914,13.914,0,0,0,1.258-3.164,64.338,64.338,0,0,1-2.786-9.615,78.013,78.013,0,0,1-1.643-9.73H138.9a2.009,2.009,0,0,1,1.947,2.062c.156,1.528.46,3.624.879,5.8.379,2.177.879,4.422,1.373,6.3.575-2.062,1.183-4.807,1.643-7.512a51.241,51.241,0,0,0,.764-6.64h1.792a1.661,1.661,0,0,1,1.758,1.873,21.6,21.6,0,0,1-.3,2.441Zm6.214,16.749c-2.745,0-4.5-1.413-4.5-4.233V190.49h.156a4.524,4.524,0,0,0,4,2.252c1.488,0,2.137-1.143,2.137-2.63,0-1.6-.913-2.326-2.6-3.049-2.671-1.143-3.854-2.86-3.854-5.3,0-3.55,1.873-6.789,5.72-6.789,2.826,0,4.158,1.643,4.158,4.158v1.717h-.156a3.738,3.738,0,0,0-3.354-2.177,2.306,2.306,0,0,0-2.556,2.482c0,1.454.649,2.137,2.482,2.975,2.482,1.109,3.969,2.86,3.969,5.531,0,4.273-2.177,6.829-5.605,6.829Z" transform="translate(0 -42.316)" fill="#292b30"></path>
    <g id="Group_165" data-name="Group 165" transform="translate(68.684)">
      <g id="Group_163" data-name="Group 163">
        <path id="Path_855" data-name="Path 855" d="M167.722,15.552a2.309,2.309,0,0,0,1.63-.676,2.749,2.749,0,0,0,.284-.345,2.548,2.548,0,0,0,.216-.4,3.117,3.117,0,0,0,.135-.426,2.549,2.549,0,0,0,.041-.446,2.315,2.315,0,0,0-.669-1.623h0a39.7,39.7,0,1,0-28.088,67.758h.014a2.293,2.293,0,0,0,1.623-.676,2.322,2.322,0,0,0,.676-1.623,2.282,2.282,0,0,0-.676-1.623,2.334,2.334,0,0,0-1.623-.676h0A35.1,35.1,0,1,1,166.1,14.876h0a2.022,2.022,0,0,0,.352.284,2.756,2.756,0,0,0,.392.216,2.919,2.919,0,0,0,.433.128,2.045,2.045,0,0,0,.446.047Z" transform="translate(-101.58)" fill="#ffec00"></path>
        <path id="Path_856" data-name="Path 856" d="M170.492,109.412a2.3,2.3,0,0,0,.487,4.544,2.082,2.082,0,0,0,.494-.054,2.3,2.3,0,0,0-.974-4.5Z" transform="translate(-123.31 -35.413)" fill="#ffec00"></path>
        <path id="Path_857" data-name="Path 857" d="M205.739,30.008a2.275,2.275,0,0,0,1.244-.365,2.3,2.3,0,1,0-1.244.365Z" transform="translate(-134.567 -8.229)" fill="#ffec00"></path>
        <path id="Path_858" data-name="Path 858" d="M213.623,47.459a2.3,2.3,0,0,0,.318,4.578,2.625,2.625,0,0,0,.325-.027,2.3,2.3,0,1,0-.642-4.551Z" transform="translate(-137.224 -15.362)" fill="#ffec00"></path>
        <path id="Path_859" data-name="Path 859" d="M214.531,59.257a2.3,2.3,0,0,0-.325,4.591h.162a2.3,2.3,0,0,0,.156-4.591Z" transform="translate(-137.361 -19.188)" fill="#ffec00"></path>
        <path id="Path_860" data-name="Path 860" d="M181.246,105.84a2.3,2.3,0,1,0,3.043,1.136A2.3,2.3,0,0,0,181.246,105.84Z" transform="translate(-126.944 -34.208)" fill="#ffec00"></path>
        <path id="Path_861" data-name="Path 861" d="M208.883,39.075a1.785,1.785,0,1,1,.007,0Z" transform="translate(-136.283 -11.65)" fill="#ffec00"></path>
        <path id="Path_862" data-name="Path 862" d="M190.979,100.039a2.3,2.3,0,1,0,3.219.46A2.3,2.3,0,0,0,190.979,100.039Z" transform="translate(-130.233 -32.248)" fill="#ffec00"></path>
        <path id="Path_863" data-name="Path 863" d="M208.859,82.1a1.694,1.694,0,1,1-.007,0Z" transform="translate(-135.218 -26.495)" fill="#ffec00"></path>
        <path id="Path_864" data-name="Path 864" d="M212.929,70.985a2.3,2.3,0,0,0-1.3,4.409,2.156,2.156,0,0,0,.649.095,2.3,2.3,0,0,0,.649-4.5Z" transform="translate(-136.685 -22.957)" fill="#ffec00"></path>
        <path id="Path_865" data-name="Path 865" d="M199.27,92.321a2.3,2.3,0,0,0,.23,3.246,2.305,2.305,0,0,0,3.246-.23,2.3,2.3,0,0,0-3.475-3.016Z" transform="translate(-133.034 -29.641)" fill="#ffec00"></path>
      </g>
      <g id="Group_164" data-name="Group 164" transform="translate(14.463 13.023)">
        <path id="Path_866" data-name="Path 866" d="M157.368,79.892c-.027.169-5.849-10.9-.568-21.739s20.826-14.247,24.288-16.4c4.084,6.018,3.293,20.718-3.462,28.209s-17.08,9.933-17.08,9.933,3.8-14.754,9.419-21.624C162.074,63.718,157.99,75.747,157.368,79.892Z" transform="translate(-133.209 -26.543)" fill="#16ff03"></path>
        <path id="Path_867" data-name="Path 867" d="M158.4,32.824a40.977,40.977,0,0,1-.27,10.224,40.976,40.976,0,0,1,9.946-5.923,42.153,42.153,0,0,0-2.529-8.973,32.267,32.267,0,0,0-5.409-8.892,65.954,65.954,0,0,0-8.892,8.892A26.3,26.3,0,0,0,146.38,38.22a27.046,27.046,0,0,1,8.553,5.058c.318-2.049,1.339-7.3,3.469-10.453Z" transform="translate(-130.551 -19.26)" fill="#16ff03"></path>
        <path id="Path_868" data-name="Path 868" d="M142.423,66.549c-1.332-2.989-9.764-10.677-9.764-10.677,3.171,1.048,7.167,4.977,10.109,8.682a22.426,22.426,0,0,1,4.314-9.338c.21-.257.426-.5.642-.751-7.559-8.425-24.646-8.506-24.646-8.506-1.427,20.975,11.589,31.719,21.252,35.214a29.838,29.838,0,0,1-1.914-14.619Z" transform="translate(-122.97 -27.906)" fill="#16ff03"></path>
      </g>
    </g>
  </g>
</svg>
