<?xml version="1.0" encoding="UTF-8"?>
<svg xmlns="http://www.w3.org/2000/svg" xmlns:xlink="http://www.w3.org/1999/xlink" id="Layer_2" data-name="Layer 2" viewBox="0 0 456.25 117.43">
  <defs>
    <style>
      .cls-1 {
        fill: url(#linear-gradient-2);
      }

      .cls-2 {
        fill: #292b30;
      }

      .cls-3 {
        fill: url(#linear-gradient);
      }
    </style>
    <linearGradient id="linear-gradient" x1="21" y1="103.68" x2="96.46" y2="13.74" gradientUnits="userSpaceOnUse">
      <stop offset="0" stop-color="#f2cc0f"></stop>
      <stop offset="1" stop-color="#ffec00"></stop>
    </linearGradient>
    <linearGradient id="linear-gradient-2" x1="71.19" y1="21.46" x2="44.45" y2="94.92" gradientUnits="userSpaceOnUse">
      <stop offset="0" stop-color="#16ff03"></stop>
      <stop offset="1" stop-color="#42db1d"></stop>
    </linearGradient>
  </defs>
  <g id="Layer_1-2" data-name="Layer 1">
    <g>
      <path class="cls-2" d="m164.63,52.09c-1.86,0-3.55-1.3-3.55-4.23,0-4.4-.39-16.36-.96-22.96-.23.62-.45,2.2-.79,3.72l-3.67,16.87c-.56,2.48-1.24,4.96-1.86,6.6h-2.03c-1.92,0-3.67-2.26-5.02-8.46l-4.01-18.11c-.62,7.84-1.02,19.52-1.02,26.57h-1.86c-2.82,0-4.06-.9-4.06-4.01,0-11.51,1.13-26.52,2.14-34.87h2.76c3.05,0,4.91,2.31,5.98,6.88l2.82,12.3c.9,4.06,1.58,7,2.03,9.76.34-1.86.68-4.4,1.35-7.39l3.05-12.86c1.02-4.34,2.14-7.33,2.99-8.69h1.75c2.88,0,4.68,2.03,5.08,7.28.79,9.59,1.52,23.02,1.52,31.59h-2.65Zm14.84.68c-5.92,0-8.46-3.95-8.46-9.59s3.22-9.65,9.53-9.65h1.3v-1.69c0-4.06-1.41-5.36-3.72-5.36-3.39,0-5.19,1.47-6.21,3.67h-.28v-2.88c0-2.54,2.14-6.32,7.45-6.32s8.29,3.55,8.29,11.06v10.32c0,7.28-2.71,10.44-7.9,10.44Zm2.43-14.39h-1.18c-2.77,0-4.12,1.47-4.12,4.4s.9,4.57,2.82,4.57c1.64,0,2.48-1.3,2.48-4.29v-4.68Zm24.6-7.9c-.96-2.82-2.43-4.12-4.85-4.12-2.93,0-5.19,4.01-5.19,10.27,0,7.05,2.31,10.72,5.19,10.72,2.6,0,4.01-1.69,4.8-3.67h.17v2.77c0,3.95-2.43,6.43-6.09,6.43-5.47,0-9.87-5.98-9.87-15.35,0-10.32,4.01-16.59,10.55-16.59,3.44,0,5.53,2.65,5.53,6.54v2.93l-.23.06Zm19.24,21.61c-1.86,0-3.27-1.07-3.27-3.67v-14.16c0-6.66-1.07-7.79-3.22-7.79-1.97,0-3.33,1.81-3.33,7.22v18.39h-2.6c-2.31,0-3.22-1.58-3.22-3.72V12.37h1.92c2.43,0,3.89,1.24,3.89,4.01v8.24c.85-2.37,2.88-3.61,4.85-3.61,4.57,0,7.45,2.99,7.45,12.41v18.68h-2.48Zm15.91.62c-5.59,0-8.75-3.55-8.75-11.51v-19.58h2.37c2.14,0,3.39,1.3,3.39,3.84v15.68c0,4.74.96,6.09,3.27,6.09,1.98,0,2.99-1.47,2.99-5.98v-19.63h2.43c2.09,0,3.39,1.35,3.39,3.84v14.89c0,8.18-2.93,12.36-9.08,12.36Zm24.2,0c-2.31,0-3.95-1.24-4.85-3.67v12.24h-1.92c-2.43,0-3.78-1.24-3.78-3.95v-20.03c0-10.72,3.22-16.31,9.48-16.31,5.92,0,9.42,5.08,9.42,15.01s-2.82,16.7-8.35,16.7Zm2.48-16.31c0-7.79-1.47-9.87-3.89-9.87-2.26,0-3.44,3.1-3.44,9.59,0,8.01,1.3,11.17,3.95,11.17,2.2,0,3.39-3.1,3.39-10.44v-.45Zm13.14-18.28c-1.86,0-3.39-1.52-3.39-3.33s1.52-3.33,3.33-3.33,3.39,1.47,3.39,3.33-1.52,3.33-3.33,3.33Zm3.27,34.42c-4.01,0-6.04-2.82-6.04-8.46v-22.34h2.54c1.75,0,2.99,1.58,2.99,3.44v18.22c0,2.99.79,3.89,3.1,3.89h.96v2.03c0,1.69-.96,3.22-3.55,3.22Zm21.33-22.06c-.96-2.82-2.43-4.12-4.85-4.12-2.93,0-5.19,4.01-5.19,10.27,0,7.05,2.31,10.72,5.19,10.72,2.6,0,4.01-1.69,4.8-3.67h.17v2.77c0,3.95-2.43,6.43-6.09,6.43-5.47,0-9.87-5.98-9.87-15.35,0-10.32,4.01-16.59,10.55-16.59,3.44,0,5.53,2.65,5.53,6.54v2.93l-.23.06Zm18.56,0c-.96-2.82-2.43-4.12-4.85-4.12-2.93,0-5.19,4.01-5.19,10.27,0,7.05,2.31,10.72,5.19,10.72,2.6,0,4.01-1.69,4.8-3.67h.17v2.77c0,3.95-2.43,6.43-6.09,6.43-5.47,0-9.87-5.98-9.87-15.35,0-10.32,4.01-16.59,10.55-16.59,3.44,0,5.53,2.65,5.53,6.54v2.93l-.23.06Zm19.24,21.61c-1.86,0-3.27-1.07-3.27-3.67v-14.16c0-6.66-1.07-7.79-3.22-7.79-1.97,0-3.33,1.81-3.33,7.22v18.39h-2.6c-2.31,0-3.22-1.58-3.22-3.72V12.37h1.92c2.43,0,3.89,1.24,3.89,4.01v8.24c.85-2.37,2.88-3.61,4.85-3.61,4.57,0,7.45,2.99,7.45,12.41v18.68h-2.48Zm15.91.62c-5.59,0-8.75-3.55-8.75-11.51v-19.58h2.37c2.14,0,3.39,1.3,3.39,3.84v15.68c0,4.74.96,6.09,3.27,6.09,1.97,0,2.99-1.47,2.99-5.98v-19.63h2.43c2.09,0,3.39,1.35,3.39,3.84v14.89c0,8.18-2.93,12.36-9.08,12.36Zm31.31-15.01c-1.18,0-2.09-.28-2.88-.73v15.12h-2.14c-2.48,0-3.84-1.13-3.84-4.12V14.51c3.1-1.3,4.97-1.58,8.24-1.58,6.04,0,10.27,3.95,10.27,11.9,0,8.46-3.78,12.86-9.65,12.86Zm-.51-19.41c-.56,0-1.86.17-2.37.34v13.09c.56.34,1.69.56,2.65.56,2.09,0,3.89-2.03,3.89-6.83,0-5.47-1.52-7.17-4.17-7.17Zm21.16,21.05h-3.16c.06,5.3,2.03,7.84,5.19,7.84s4.68-1.3,5.7-3.1h.23v2.37c0,3.33-1.86,6.32-6.94,6.32-5.7,0-9.93-5.47-9.93-15.35,0-10.49,4.01-16.42,9.76-16.42,4.97,0,8.12,4.51,8.12,10.83,0,5.98-2.93,7.5-8.97,7.5Zm.45-12.98c-2.14,0-3.61,2.99-3.61,7.67v.73h2.2c3.67,0,4.51-.96,4.51-3.05,0-3.33-1.02-5.36-3.1-5.36Zm23.64,1.47c-.51-.62-1.41-1.24-2.6-1.24-2.2,0-3.1,1.86-3.1,6.15v19.35h-2.26c-1.98,0-3.5-1.13-3.5-3.67v-15.57c0-7.45,2.43-11.79,7.45-11.79,2.93,0,4.17,1.86,4.17,4.12v2.65h-.17Zm11.34,24.88c-5.59,0-8.74-3.55-8.74-11.51v-19.58h2.37c2.14,0,3.39,1.3,3.39,3.84v15.68c0,4.74.96,6.09,3.27,6.09,1.97,0,2.99-1.47,2.99-5.98v-19.63h2.43c2.09,0,3.39,1.35,3.39,3.84v14.89c0,8.18-2.93,12.36-9.08,12.36Zm3.05-37.52c-1.69,1.75-3.44,2.71-4.68,2.71h-.85v-.28c.45-1.86,1.47-4.51,2.26-6.04,1.02-2.03,2.03-2.93,3.27-2.93,1.35,0,2.09.73,2.09,2.2,0,1.86-1.18,3.44-2.09,4.34Zm-226.46,90.67c-3.1,0-4.96-1.98-4.96-4.06v-2.26h.23c1.02.62,2.54,1.02,3.67,1.02,2.6,0,3.55-.96,3.55-5.25v-28.89h2.09c2.65,0,3.89,1.02,3.89,3.84v24.82c0,7.22-2.76,10.78-8.46,10.78Zm22.45.11c-6.43,0-9.37-6.71-9.37-15.68,0-9.99,3.27-16.14,9.65-16.14s9.37,5.75,9.37,15.57-3.22,16.25-9.65,16.25Zm0-26.29c-2.2,0-3.61,2.71-3.61,9.93,0,7.73,1.13,10.83,3.89,10.83,2.26,0,3.61-2.76,3.61-9.93,0-8.58-1.35-10.83-3.89-10.83Zm22.12,26.24c-5.59,0-8.74-3.55-8.74-11.51v-19.58h2.37c2.14,0,3.39,1.3,3.39,3.84v15.68c0,4.74.96,6.09,3.27,6.09,1.98,0,2.99-1.47,2.99-5.98v-19.63h2.43c2.09,0,3.39,1.35,3.39,3.84v14.89c0,8.18-2.93,12.36-9.08,12.36Zm25.11-24.88c-.51-.62-1.41-1.24-2.6-1.24-2.2,0-3.1,1.86-3.1,6.15v19.35h-2.26c-1.98,0-3.5-1.13-3.5-3.67v-15.57c0-7.45,2.43-11.79,7.45-11.79,2.93,0,4.17,1.86,4.17,4.12v2.65h-.17Zm18.11,24.26c-1.92,0-3.22-1.02-3.22-3.89v-14.39c0-6.38-1.07-7.33-3.33-7.33-1.92,0-3.16,1.07-3.16,7v18.62h-2.65c-2.03,0-3.16-1.19-3.16-3.89v-14.39c0-8.75,3.1-12.81,9.14-12.81,5.3,0,8.97,3.27,8.97,12.3v18.79h-2.6Zm15.23-12.75h-3.16c.06,5.3,2.03,7.84,5.19,7.84s4.68-1.3,5.7-3.1h.23v2.37c0,3.33-1.86,6.32-6.94,6.32-5.7,0-9.93-5.47-9.93-15.35,0-10.49,4.01-16.42,9.76-16.42,4.97,0,8.12,4.51,8.12,10.83,0,5.98-2.93,7.5-8.97,7.5Zm.45-12.98c-2.14,0-3.61,2.99-3.61,7.67v.73h2.2c3.67,0,4.51-.96,4.51-3.05,0-3.33-1.02-5.36-3.1-5.36Zm28.55,1.64c-1.19,5.98-2.82,13.48-4.46,19.01-1.86,6.49-3.1,10.38-5.13,12.53-1.07,1.19-2.43,1.86-4.12,1.86-2.65,0-3.89-1.18-3.89-3.16v-1.86h1.75c1.19,0,1.97-.17,2.76-1.47.85-1.35,1.41-3.22,1.86-4.68-1.41-3.44-2.93-8.8-4.12-14.22-1.24-5.47-2.14-10.89-2.43-14.39h3.22c1.75,0,2.76,1.41,2.88,3.05.23,2.26.68,5.36,1.3,8.58.56,3.22,1.3,6.54,2.03,9.31.85-3.05,1.75-7.11,2.43-11.11.62-3.5,1.02-7,1.13-9.82h2.65c1.69,0,2.6,1.07,2.6,2.77,0,.51-.23,2.43-.45,3.61Zm9.19,24.77c-4.06,0-6.66-2.09-6.66-6.26v-2.6h.23c1.19,1.98,3.22,3.33,5.92,3.33,2.2,0,3.16-1.69,3.16-3.89,0-2.37-1.35-3.44-3.84-4.51-3.95-1.69-5.7-4.23-5.7-7.84,0-5.25,2.77-10.04,8.46-10.04,4.18,0,6.15,2.43,6.15,6.15v2.54h-.23c-1.07-1.92-2.65-3.22-4.96-3.22-2.54,0-3.78,1.52-3.78,3.67s.96,3.16,3.67,4.4c3.67,1.64,5.87,4.23,5.87,8.18,0,6.32-3.22,10.1-8.29,10.1Z"></path>
      <path class="cls-3" d="m97.16,22.93c-.21-.05-.43-.11-.64-.19-.2-.09-.4-.2-.58-.32-.19-.12-.36-.26-.52-.42h0s0,0,0,0c0,0,0,0,0,0,0,0,0,0,0,0-9.81-9.8-22.84-15.2-36.71-15.2C30.09,6.8,6.8,30.09,6.8,58.71s23.29,51.91,51.91,51.91h0s0,0,0,0c.89,0,1.77.36,2.4,1,.63.63,1,1.5,1,2.4s-.36,1.77-1,2.4c-.64.63-1.51,1-2.4,1,0,0-.01,0-.02,0-32.37,0-58.7-26.34-58.7-58.71S26.34,0,58.71,0c15.68,0,30.42,6.11,41.51,17.19,0,0,0,0,0,0,.63.63.99,1.51.99,2.4,0,.22-.02.45-.06.66-.05.22-.11.43-.2.63-.08.2-.19.4-.32.59-.12.18-.26.35-.42.51-.63.63-1.51,1-2.41,1-.22,0-.45-.02-.66-.07Zm-27.38,86.51c-1.84.4-3,2.21-2.6,4.05.35,1.59,1.75,2.67,3.32,2.67.24,0,.48-.02.73-.08,1.84-.4,3-2.21,2.6-4.04-.39-1.84-2.21-3-4.04-2.61Zm35.47-77.23c.63,0,1.27-.17,1.84-.54,1.58-1.02,2.03-3.12,1.02-4.7-1.02-1.58-3.12-2.03-4.7-1.02-1.58,1.02-2.03,3.12-1.02,4.7.65,1.01,1.74,1.56,2.86,1.56Zm7.74,15.26c-1.86.26-3.15,1.99-2.89,3.85.24,1.7,1.69,2.92,3.36,2.92.16,0,.32-.02.48-.04,1.86-.26,3.15-1.99,2.89-3.84-.26-1.86-1.99-3.15-3.84-2.89Zm1.13,11.79c-1.87-.13-3.5,1.28-3.63,3.16-.14,1.87,1.28,3.5,3.15,3.63.08,0,.17,0,.24,0,1.77,0,3.26-1.37,3.39-3.16.13-1.87-1.28-3.5-3.16-3.63Zm-33.82,46.68c-1.71.79-2.46,2.8-1.68,4.51.57,1.25,1.81,1.98,3.09,1.98.48,0,.96-.1,1.42-.31,1.7-.78,2.46-2.79,1.67-4.5-.78-1.71-2.8-2.46-4.5-1.68Zm27.07-65.37c.51,1.37,1.81,2.21,3.18,2.21.39,0,.79-.07,1.19-.22,1.76-.65,2.65-2.61,2-4.37-.66-1.75-2.61-2.65-4.37-1.99-1.76.66-2.65,2.61-1.99,4.37Zm-17.53,59.7c-1.5,1.13-1.81,3.26-.68,4.76.67.89,1.69,1.36,2.72,1.36.71,0,1.43-.22,2.04-.68,1.5-1.13,1.81-3.26.68-4.76-1.13-1.5-3.26-1.81-4.76-.68Zm19.07-18.03c-1.65-.9-3.71-.29-4.62,1.35-.9,1.65-.29,3.71,1.35,4.62.52.28,1.08.42,1.63.42,1.2,0,2.36-.64,2.98-1.77.9-1.65.29-3.72-1.35-4.62Zm3.85-11.2c-1.8-.53-3.69.51-4.22,2.3-.53,1.81.51,3.69,2.3,4.22.32.1.64.14.96.14,1.47,0,2.83-.97,3.26-2.45.53-1.8-.51-3.69-2.3-4.21Zm-14.8,21.67c-1.23,1.42-1.08,3.57.34,4.8.64.56,1.43.83,2.23.83.95,0,1.9-.39,2.57-1.17,1.23-1.42,1.07-3.57-.34-4.8-1.42-1.23-3.57-1.07-4.8.34Z"></path>
      <path class="cls-1" d="m57.12,98.16c-.04.25-8.65-16.12-.84-32.15,7.81-16.03,30.8-21.07,35.92-24.26,6.04,8.9,4.87,30.64-5.12,41.72-9.99,11.08-25.26,14.69-25.26,14.69,0,0,5.62-21.82,13.93-31.98-11.67,8.06-17.71,25.85-18.63,31.98Zm5.46-58.84c.78,5.31,0,12.28-.4,15.12,4.37-3.68,9.44-6.43,14.71-8.76-.11-.76-.93-6.17-3.74-13.27-3.02-7.67-8-13.15-8-13.15,0,0-7.44,5.99-13.15,13.15-5.23,6.56-6.95,13.73-7.2,14.89,4.69,1.79,9.04,4.22,12.65,7.48.47-3.03,1.98-10.79,5.13-15.46Zm-12.42,37.08c-1.97-4.42-14.44-15.79-14.44-15.79,4.69,1.55,10.6,7.36,14.95,12.84,1.06-4.98,3.13-9.71,6.38-13.81.31-.38.63-.74.95-1.11-11.18-12.46-36.45-12.58-36.45-12.58-2.11,31.02,17.14,46.91,31.43,52.08-2.68-6.79-3.77-14.38-2.83-21.62Z"></path>
    </g>
  </g>
</svg>
