<?xml version="1.0" encoding="UTF-8"?>
<svg xmlns="http://www.w3.org/2000/svg" xmlns:xlink="http://www.w3.org/1999/xlink" width="216.689" height="159.646" viewBox="0 0 216.689 159.646">
  <defs>
    <linearGradient id="linear-gradient" x1="0.179" y1="0.883" x2="0.823" y2="0.117" gradientUnits="objectBoundingBox">
      <stop offset="0" stop-color="#f2cc0f"></stop>
      <stop offset="1" stop-color="#ffec00"></stop>
    </linearGradient>
    <linearGradient id="linear-gradient-2" x1="0.669" y1="0.028" x2="0.31" y2="0.959" gradientUnits="objectBoundingBox">
      <stop offset="0" stop-color="#16ff03"></stop>
      <stop offset="1" stop-color="#42db1d"></stop>
    </linearGradient>
  </defs>
  <g id="Group_170" data-name="Group 170" transform="translate(-404 -2760)">
    <path id="Path_851" data-name="Path 851" d="M155.294,38.022c-1.258,0-2.4-.879-2.4-2.86,0-2.975-.264-11.062-.649-15.525-.156.419-.3,1.488-.534,2.515L149.229,33.56a36.864,36.864,0,0,1-1.258,4.463H146.6c-1.3,0-2.482-1.528-3.394-5.72l-2.711-12.245c-.419,5.3-.69,13.2-.69,17.966h-1.258c-1.907,0-2.745-.609-2.745-2.711a228.072,228.072,0,0,1,1.447-23.578h1.866c2.062,0,3.32,1.562,4.043,4.652l1.907,8.317c.609,2.745,1.068,4.733,1.373,6.6.23-1.258.46-2.975.913-5l2.062-8.7a22.356,22.356,0,0,1,2.022-5.876h1.183c1.947,0,3.164,1.373,3.435,4.922.534,6.484,1.028,15.565,1.028,21.36h-1.792Zm10.034.46c-4,0-5.72-2.671-5.72-6.484s2.177-6.525,6.444-6.525h.879V24.33c0-2.745-.953-3.624-2.515-3.624a4.148,4.148,0,0,0-4.2,2.482h-.189V21.24c0-1.717,1.447-4.273,5.037-4.273s5.605,2.4,5.605,7.478v6.978c0,4.922-1.832,7.059-5.342,7.059Zm1.643-9.73h-.8c-1.873,0-2.786.994-2.786,2.975s.608,3.09,1.907,3.09c1.109,0,1.677-.879,1.677-2.9V28.752ZM183.6,23.411c-.649-1.907-1.643-2.786-3.279-2.786-1.981,0-3.509,2.711-3.509,6.944,0,4.767,1.562,7.248,3.509,7.248a3.416,3.416,0,0,0,3.246-2.482h.115v1.873c0,2.671-1.643,4.348-4.118,4.348-3.7,0-6.674-4.043-6.674-10.379,0-6.978,2.711-11.218,7.134-11.218,2.326,0,3.739,1.792,3.739,4.422v1.981l-.155.041Zm13.009,14.612c-1.258,0-2.211-.723-2.211-2.482V25.966c0-4.5-.724-5.267-2.177-5.267-1.332,0-2.252,1.224-2.252,4.882V38.016h-1.758c-1.562,0-2.177-1.068-2.177-2.515V11.165h1.3a2.379,2.379,0,0,1,2.63,2.711v5.572a3.521,3.521,0,0,1,3.279-2.441c3.09,0,5.037,2.022,5.037,8.391V38.029h-1.677Zm10.758.419c-3.78,0-5.916-2.4-5.916-7.783V17.42h1.6c1.447,0,2.292.879,2.292,2.6v10.6c0,3.205.649,4.118,2.211,4.118,1.339,0,2.022-.994,2.022-4.043V17.42h1.643c1.413,0,2.292.913,2.292,2.6V30.084c0,5.531-1.981,8.357-6.14,8.357Zm16.363,0a3.339,3.339,0,0,1-3.279-2.482v8.276h-1.3c-1.643,0-2.556-.838-2.556-2.671V28.022c0-7.248,2.177-11.028,6.41-11.028,4,0,6.369,3.435,6.369,10.149s-1.907,11.292-5.646,11.292Zm1.677-11.028c0-5.267-.994-6.674-2.63-6.674-1.528,0-2.326,2.1-2.326,6.484,0,5.416.879,7.553,2.671,7.553,1.488,0,2.292-2.1,2.292-7.059v-.3Zm8.885-12.36a2.252,2.252,0,1,1,2.252-2.252A2.255,2.255,0,0,1,234.3,15.053Zm2.211,23.273c-2.711,0-4.084-1.907-4.084-5.72V17.5h1.717a2.162,2.162,0,0,1,2.022,2.326v12.32c0,2.022.534,2.63,2.1,2.63h.649v1.373A2.093,2.093,0,0,1,236.507,38.327ZM250.93,23.411c-.649-1.907-1.643-2.786-3.279-2.786-1.981,0-3.509,2.711-3.509,6.944,0,4.767,1.562,7.248,3.509,7.248a3.416,3.416,0,0,0,3.246-2.482h.115v1.873c0,2.671-1.643,4.348-4.118,4.348-3.7,0-6.674-4.043-6.674-10.379,0-6.978,2.711-11.218,7.133-11.218,2.326,0,3.739,1.792,3.739,4.422v1.981l-.155.041Zm12.55,0c-.649-1.907-1.643-2.786-3.279-2.786-1.981,0-3.509,2.711-3.509,6.944,0,4.767,1.562,7.248,3.509,7.248a3.416,3.416,0,0,0,3.246-2.482h.115v1.873c0,2.671-1.643,4.348-4.118,4.348-3.7,0-6.674-4.043-6.674-10.379,0-6.978,2.711-11.218,7.133-11.218,2.326,0,3.739,1.792,3.739,4.422v1.981l-.156.041Zm13.009,14.612c-1.258,0-2.211-.723-2.211-2.482V25.966c0-4.5-.723-5.267-2.177-5.267-1.332,0-2.252,1.224-2.252,4.882V38.016h-1.758c-1.562,0-2.177-1.068-2.177-2.515V11.165h1.3a2.379,2.379,0,0,1,2.63,2.711v5.572a3.521,3.521,0,0,1,3.279-2.441c3.09,0,5.037,2.022,5.037,8.391V38.029h-1.677Zm10.758.419c-3.78,0-5.916-2.4-5.916-7.783V17.42h1.6c1.447,0,2.292.879,2.292,2.6v10.6c0,3.205.649,4.118,2.211,4.118,1.332,0,2.022-.994,2.022-4.043V17.42H291.1c1.413,0,2.292.913,2.292,2.6V30.084c0,5.531-1.981,8.357-6.139,8.357Zm21.171-10.149a3.79,3.79,0,0,1-1.947-.494V38.022h-1.447c-1.677,0-2.6-.764-2.6-2.786V12.612A12.288,12.288,0,0,1,308,11.544c4.084,0,6.944,2.671,6.944,8.046,0,5.72-2.556,8.7-6.525,8.7Zm-.345-13.124a7.389,7.389,0,0,0-1.6.23v8.851a4,4,0,0,0,1.792.379c1.413,0,2.63-1.373,2.63-4.618,0-3.7-1.028-4.848-2.82-4.848ZM322.38,29.4h-2.137c.041,3.584,1.373,5.3,3.509,5.3a3.932,3.932,0,0,0,3.854-2.1h.155v1.6c0,2.252-1.258,4.273-4.693,4.273-3.854,0-6.714-3.7-6.714-10.379,0-7.093,2.711-11.1,6.6-11.1,3.361,0,5.49,3.049,5.49,7.323,0,4.043-1.981,5.071-6.065,5.071Zm.3-8.777c-1.447,0-2.441,2.022-2.441,5.186V26.3h1.488c2.482,0,3.049-.649,3.049-2.062,0-2.252-.69-3.624-2.1-3.624Zm15.984.994a2.286,2.286,0,0,0-1.758-.838c-1.488,0-2.1,1.258-2.1,4.158V38.022h-1.528a2.218,2.218,0,0,1-2.367-2.482V25.013c0-5.037,1.643-7.972,5.037-7.972a2.572,2.572,0,0,1,2.82,2.786v1.792h-.115Zm7.668,16.823c-3.78,0-5.91-2.4-5.91-7.783V17.42h1.6c1.447,0,2.292.879,2.292,2.6v10.6c0,3.205.649,4.118,2.211,4.118,1.332,0,2.022-.994,2.022-4.043V17.42H350.2c1.413,0,2.292.913,2.292,2.6V30.084c0,5.531-1.981,8.357-6.139,8.357Zm2.062-25.37a5.13,5.13,0,0,1-3.164,1.832h-.575v-.189a21.637,21.637,0,0,1,1.528-4.084c.69-1.373,1.373-1.981,2.211-1.981a1.294,1.294,0,0,1,1.413,1.488A4.366,4.366,0,0,1,348.4,13.072ZM195.275,74.38c-2.1,0-3.354-1.339-3.354-2.745V70.106h.156a5.3,5.3,0,0,0,2.482.69c1.758,0,2.4-.649,2.4-3.55V47.712h1.413c1.792,0,2.63.69,2.63,2.6V67.091c0,4.882-1.866,7.289-5.72,7.289Zm15.18.074c-4.348,0-6.336-4.537-6.336-10.6,0-6.755,2.211-10.913,6.525-10.913s6.336,3.888,6.336,10.528S214.8,74.454,210.455,74.454Zm0-17.776c-1.488,0-2.441,1.832-2.441,6.714,0,5.227.764,7.323,2.63,7.323,1.528,0,2.441-1.866,2.441-6.714C213.085,58.2,212.172,56.678,210.455,56.678ZM225.412,74.42c-3.78,0-5.91-2.4-5.91-7.783V53.4h1.6c1.447,0,2.292.879,2.292,2.6V66.6c0,3.2.649,4.118,2.211,4.118,1.339,0,2.022-.994,2.022-4.043V53.4h1.643c1.413,0,2.292.913,2.292,2.6V66.063c0,5.531-1.981,8.357-6.139,8.357ZM242.39,57.6a2.286,2.286,0,0,0-1.758-.838c-1.488,0-2.1,1.258-2.1,4.158V74h-1.528a2.218,2.218,0,0,1-2.367-2.482V60.992c0-5.037,1.643-7.972,5.037-7.972a2.572,2.572,0,0,1,2.82,2.786V57.6h-.115ZM254.635,74c-1.3,0-2.177-.69-2.177-2.63v-9.73c0-4.314-.724-4.956-2.252-4.956-1.3,0-2.137.723-2.137,4.733v12.59h-1.792c-1.373,0-2.137-.8-2.137-2.63v-9.73c0-5.916,2.1-8.662,6.18-8.662,3.584,0,6.065,2.211,6.065,8.317V74.008h-1.758Zm10.3-8.621H262.8c.041,3.584,1.373,5.3,3.509,5.3a3.932,3.932,0,0,0,3.854-2.1h.155v1.6c0,2.252-1.258,4.273-4.693,4.273-3.854,0-6.714-3.7-6.714-10.379,0-7.093,2.711-11.1,6.6-11.1,3.36,0,5.49,3.049,5.49,7.323,0,4.043-1.981,5.071-6.065,5.071Zm.3-8.777c-1.447,0-2.441,2.022-2.441,5.186v.494h1.488c2.482,0,3.05-.649,3.05-2.062,0-2.252-.69-3.624-2.1-3.624Zm19.3,1.109c-.8,4.043-1.907,9.115-3.016,12.854-1.258,4.388-2.1,7.019-3.469,8.472a3.607,3.607,0,0,1-2.786,1.258c-1.792,0-2.63-.8-2.63-2.137V76.9h1.183a1.815,1.815,0,0,0,1.866-.994,13.911,13.911,0,0,0,1.258-3.164,64.336,64.336,0,0,1-2.786-9.615,78.024,78.024,0,0,1-1.643-9.73H274.7a2.009,2.009,0,0,1,1.947,2.062c.156,1.528.46,3.624.879,5.8.379,2.177.879,4.422,1.373,6.3.575-2.062,1.183-4.807,1.643-7.512a51.244,51.244,0,0,0,.764-6.64h1.792a1.661,1.661,0,0,1,1.758,1.873,21.6,21.6,0,0,1-.3,2.441Zm6.214,16.749c-2.745,0-4.5-1.413-4.5-4.233V68.47h.156a4.524,4.524,0,0,0,4,2.252c1.488,0,2.137-1.143,2.137-2.63,0-1.6-.913-2.326-2.6-3.049-2.671-1.143-3.854-2.86-3.854-5.3,0-3.55,1.873-6.789,5.72-6.789,2.826,0,4.158,1.643,4.158,4.158v1.717h-.156a3.738,3.738,0,0,0-3.354-2.177,2.306,2.306,0,0,0-2.556,2.482c0,1.454.649,2.137,2.482,2.975,2.481,1.109,3.969,2.86,3.969,5.531,0,4.273-2.177,6.829-5.605,6.829Z" transform="translate(268.2 2839.35)" fill="#292b30"></path>
    <g id="Group_169" data-name="Group 169" transform="translate(474.923 2760)">
      <path id="Path_852" data-name="Path 852" d="M65.693,15.5a3.5,3.5,0,0,1-.433-.128,2.757,2.757,0,0,1-.392-.216,2.022,2.022,0,0,1-.352-.284h0A35.1,35.1,0,1,0,39.694,74.8h0a2.295,2.295,0,0,1,1.623,3.922,2.334,2.334,0,0,1-1.623.676h-.014A39.7,39.7,0,1,1,67.762,11.623h0a2.315,2.315,0,0,1,.669,1.623,2.434,2.434,0,0,1-.041.446,2.235,2.235,0,0,1-.135.426,2.09,2.09,0,0,1-.216.4,2.262,2.262,0,0,1-.284.345,2.326,2.326,0,0,1-1.63.676,1.962,1.962,0,0,1-.446-.047ZM47.179,74a2.3,2.3,0,0,0,.487,4.544,2.083,2.083,0,0,0,.494-.054,2.3,2.3,0,0,0-.974-4.5Zm23.983-52.22a2.275,2.275,0,0,0,1.244-.365,2.3,2.3,0,1,0-1.244.365ZM76.4,32.1a2.3,2.3,0,0,0,.318,4.578,2.626,2.626,0,0,0,.325-.027A2.3,2.3,0,1,0,76.4,32.1Zm.764,7.972a2.3,2.3,0,0,0-.325,4.591H77a2.3,2.3,0,0,0,.156-4.591ZM54.292,71.633a2.3,2.3,0,1,0,3.043,1.136,2.3,2.3,0,0,0-3.043-1.136Zm18.3-44.2a1.786,1.786,0,1,1,.007,0ZM60.743,67.8a2.3,2.3,0,1,0,3.219.46A2.3,2.3,0,0,0,60.743,67.8ZM73.637,55.607a1.694,1.694,0,1,1-.007,0Zm2.6-7.573a2.3,2.3,0,1,0-1.3,4.409,2.156,2.156,0,0,0,.649.095,2.3,2.3,0,0,0,.649-4.5ZM66.233,62.687a2.3,2.3,0,0,0,.23,3.246,2.305,2.305,0,0,0,3.246-.23,2.3,2.3,0,0,0-3.475-3.016Z" transform="translate(0.01 0)" fill="url(#linear-gradient)"></path>
      <path id="Path_853" data-name="Path 853" d="M45.549,72.609c-.027.169-5.849-10.9-.568-21.739s20.826-14.247,24.288-16.4c4.084,6.018,3.293,20.718-3.462,28.209s-17.08,9.933-17.08,9.933,3.8-14.754,9.419-21.624C50.255,56.435,46.171,68.464,45.549,72.609Zm3.692-39.785a40.976,40.976,0,0,1-.27,10.224,40.977,40.977,0,0,1,9.946-5.923,42.153,42.153,0,0,0-2.529-8.973,32.267,32.267,0,0,0-5.409-8.892,65.955,65.955,0,0,0-8.892,8.892A26.3,26.3,0,0,0,37.219,38.22a27.047,27.047,0,0,1,8.553,5.058c.318-2.049,1.339-7.3,3.469-10.453ZM40.843,57.9c-1.332-2.989-9.764-10.677-9.764-10.677,3.171,1.048,7.167,4.977,10.109,8.682A22.426,22.426,0,0,1,45.5,46.563c.21-.257.426-.5.642-.751C38.585,37.388,21.5,37.307,21.5,37.307,20.072,58.281,33.088,69.025,42.75,72.521A29.838,29.838,0,0,1,40.837,57.9Z" transform="translate(-6.92 -6.237)" fill="url(#linear-gradient-2)"></path>
    </g>
  </g>
</svg>
