<?xml version="1.0" encoding="UTF-8"?>
<svg xmlns="http://www.w3.org/2000/svg" id="_002-mastercard" data-name="002-mastercard" width="68.961" height="43.097" viewBox="0 0 68.961 43.097">
  <path id="Path_847" data-name="Path 847" d="M43.084,76.267A21.542,21.542,0,1,1,21.542,54.719,21.542,21.542,0,0,1,43.084,76.267Z" transform="translate(0 -54.719)" fill="#e2574c"></path>
  <path id="Path_848" data-name="Path 848" d="M130.981,54.719a21.423,21.423,0,0,0-12.873,4.3l.017,0a18.463,18.463,0,0,1,2.088,1.95l-4.482.071a22.155,22.155,0,0,0-1.946,2.282h7.9a20.021,20.021,0,0,1,1.661,2.146h-11a21.467,21.467,0,0,0-1.1,2.148H124.6a18.354,18.354,0,0,1,.927,2.08H110.46a20.754,20.754,0,0,0-.6,2.28h16.3c.16.746.282,1.435.366,2.138H109.538c-.071.709-.108,1.429-.108,2.155h17.219a18.926,18.926,0,0,1-.131,2.155h-16.98q.11,1.1.323,2.155h16.273c-.168.7-.362,1.4-.605,2.129H110.411a20.917,20.917,0,0,0,.81,2.15H124.6A19.63,19.63,0,0,1,123.348,87H112.314a20.966,20.966,0,0,0,1.437,2.163l7.938.118a20.974,20.974,0,0,1-2.336,2.013c.043.035-1.265,0-3.84-.045a21.543,21.543,0,1,0,15.468-36.533Z" transform="translate(-83.568 -54.719)" fill="#f4b459"></path>
</svg>
