<?xml version="1.0" encoding="UTF-8"?>
<svg xmlns="http://www.w3.org/2000/svg" id="_002-checklist" data-name="002-checklist" width="62.806" height="84.623" viewBox="0 0 62.806 84.623">
  <g id="Group_114" data-name="Group 114" transform="translate(1.653 1.653)">
    <path id="Path_797" data-name="Path 797" d="M27.813,75.2a3.677,3.677,0,0,1-3.708-3.625V70.418H12.644A2.652,2.652,0,0,0,10,73.062V139.1a2.652,2.652,0,0,0,2.644,2.644H66.856A2.652,2.652,0,0,0,69.5,139.1V73.062a2.652,2.652,0,0,0-2.644-2.644H55.395v1.161A3.677,3.677,0,0,1,51.687,75.2ZM16.228,81.06H63.273a.529.529,0,0,1,.533.522V135.66a.529.529,0,0,1-.533.522H16.228a.53.53,0,0,1-.534-.522V81.581A.53.53,0,0,1,16.228,81.06Zm0,0" transform="translate(-10 -60.432)" fill="#00c9af" fill-rule="evenodd"></path>
    <path id="Path_798" data-name="Path 798" d="M122.929,24.772H99.055a3.677,3.677,0,0,1-3.707-3.625V18.683a3.677,3.677,0,0,1,3.707-3.625H104.1a7.224,7.224,0,0,1,13.783,0h5.045a3.678,3.678,0,0,1,3.708,3.625v2.464A3.677,3.677,0,0,1,122.929,24.772Zm0,0" transform="translate(-81.241 -10)" fill="#ffd777" fill-rule="evenodd"></path>
    <path id="Path_799" data-name="Path 799" d="M44.987,134.8H92.032a.529.529,0,0,1,.533.522V189.4a.529.529,0,0,1-.533.522H44.987a.53.53,0,0,1-.534-.522V135.326A.53.53,0,0,1,44.987,134.8Zm0,0" transform="translate(-38.759 -114.177)" fill="#f4f4f4" fill-rule="evenodd"></path>
  </g>
  <path id="Path_800" data-name="Path 800" d="M181.653,44.688A1.653,1.653,0,0,0,180,46.34v.037a1.653,1.653,0,1,0,3.306,0V46.34A1.653,1.653,0,0,0,181.653,44.688Zm0,0" transform="translate(-150.25 -37.302)"></path>
  <path id="Path_801" data-name="Path 801" d="M34.453,181.058a2.183,2.183,0,0,0,2.187,2.174H83.684a2.183,2.183,0,0,0,2.186-2.174V126.979a2.183,2.183,0,0,0-2.186-2.174H36.64a2.183,2.183,0,0,0-2.187,2.174Zm3.306-52.947H82.565v51.816H37.759Zm0,0" transform="translate(-28.759 -104.177)"></path>
  <path id="Path_802" data-name="Path 802" d="M81.549,198.707l-3.239,3.238-1.035-1.035a1.653,1.653,0,0,0-2.338,2.338l2.2,2.2a1.652,1.652,0,0,0,2.337,0l4.408-4.408a1.653,1.653,0,1,0-2.337-2.337Zm0,0" transform="translate(-62.148 -165.461)"></path>
  <path id="Path_803" data-name="Path 803" d="M81.549,278.71l-3.239,3.238-1.035-1.035a1.653,1.653,0,0,0-2.338,2.338l2.2,2.2a1.652,1.652,0,0,0,2.337,0l4.408-4.408a1.653,1.653,0,1,0-2.337-2.337Zm0,0" transform="translate(-62.148 -232.241)"></path>
  <path id="Path_804" data-name="Path 804" d="M81.549,358.713l-3.239,3.239-1.035-1.036a1.653,1.653,0,0,0-2.338,2.338l2.2,2.2a1.652,1.652,0,0,0,2.337,0l4.408-4.408a1.653,1.653,0,1,0-2.337-2.337Zm0,0" transform="translate(-62.148 -299.022)"></path>
  <path id="Path_805" data-name="Path 805" d="M162.157,214.864h18.867a1.653,1.653,0,1,0,0-3.306H162.157a1.653,1.653,0,0,0,0,3.306Zm0,0" transform="translate(-133.976 -176.592)"></path>
  <path id="Path_806" data-name="Path 806" d="M162.157,294.864h18.867a1.653,1.653,0,1,0,0-3.306H162.157a1.653,1.653,0,0,0,0,3.306Zm0,0" transform="translate(-133.976 -243.37)"></path>
  <path id="Path_807" data-name="Path 807" d="M182.676,373.215a1.653,1.653,0,0,0-1.653-1.653H162.157a1.653,1.653,0,0,0,0,3.306h18.867A1.653,1.653,0,0,0,182.676,373.215Zm0,0" transform="translate(-133.976 -310.151)"></path>
  <path id="Path_808" data-name="Path 808" d="M262.947,428.313h-6.782a1.653,1.653,0,1,0,0,3.306h6.782a1.653,1.653,0,1,0,0-3.306Zm0,0" transform="translate(-212.446 -357.521)"></path>
  <path id="Path_809" data-name="Path 809" d="M227.238,428.313H227.2a1.653,1.653,0,1,0,0,3.306h.039a1.653,1.653,0,0,0,0-3.306Zm0,0" transform="translate(-188.269 -357.521)"></path>
  <path id="Path_810" data-name="Path 810" d="M58.509,9.986H48.687A5.332,5.332,0,0,0,43.34,5.058H39.429a8.9,8.9,0,0,0-16.053,0H19.466a5.325,5.325,0,0,0-5.36,5.278V12.8a5.325,5.325,0,0,0,5.36,5.277H43.341a5.335,5.335,0,0,0,5.336-4.786h9.832a1,1,0,0,1,.992.992V80.326a1,1,0,0,1-.992.992H4.3a1,1,0,0,1-.992-.992V14.283a1,1,0,0,1,.992-.992,1.653,1.653,0,0,0,0-3.306,4.3,4.3,0,0,0-4.3,4.3V80.326a4.3,4.3,0,0,0,4.3,4.3H58.509a4.3,4.3,0,0,0,4.3-4.3V14.283A4.3,4.3,0,0,0,58.509,9.986ZM45.395,12.8a2.017,2.017,0,0,1-2.055,1.972H19.466A2.017,2.017,0,0,1,17.411,12.8V10.336a2.017,2.017,0,0,1,2.055-1.972h5.045A1.653,1.653,0,0,0,26.1,7.181a5.572,5.572,0,0,1,10.615,0A1.652,1.652,0,0,0,38.3,8.363H43.34a2.017,2.017,0,0,1,2.055,1.972Zm0,0"></path>
  <path id="Path_811" data-name="Path 811" d="M46.383,63.724h.045a1.653,1.653,0,0,0,0-3.306h-.045a1.653,1.653,0,0,0,0,3.306Zm0,0" transform="translate(-37.337 -50.432)"></path>
</svg>
