<?xml version="1.0" encoding="UTF-8"?>
<svg xmlns="http://www.w3.org/2000/svg" id="_001-visa" data-name="001-visa" width="68.955" height="21.579" viewBox="0 0 68.955 21.579">
  <g id="Group_118" data-name="Group 118" transform="translate(6.443 0)">
    <g id="Group_117" data-name="Group 117">
      <path id="Path_845" data-name="Path 845" d="M49,100.23l-3.461,21.536h5.531l3.459-21.536ZM65.689,109c-1.933-.955-3.118-1.6-3.118-2.575.024-.888,1-1.8,3.187-1.8a9.626,9.626,0,0,1,4.12.8l.5.224.752-4.506a13.961,13.961,0,0,0-4.965-.888c-5.462,0-9.309,2.84-9.333,6.9-.045,3,2.754,4.661,4.848,5.659,2.14,1.024,2.868,1.687,2.868,2.6-.024,1.4-1.73,2.041-3.323,2.041a11.249,11.249,0,0,1-5.191-1.11l-.728-.332-.774,4.683a17.274,17.274,0,0,0,6.169,1.112c5.805,0,9.583-2.8,9.63-7.126C70.354,112.308,68.879,110.489,65.689,109ZM85.313,100.3h-4.28a2.741,2.741,0,0,0-2.892,1.733l-8.217,19.736h5.805l1.6-4.273h6.495l.83,4.29h5.12ZM78.939,113.18c.112.011,2.228-6.975,2.228-6.975l1.685,6.975ZM40.922,100.23,35.5,114.861l-.59-2.885a16.078,16.078,0,0,0-7.65-8.744l4.963,18.512h5.853l8.7-21.512H40.922Z" transform="translate(-27.262 -100.23)" fill="#2394bc"></path>
    </g>
  </g>
  <path id="Path_846" data-name="Path 846" d="M12.27,103.021a3.614,3.614,0,0,0-3.6-2.773H.088l-.088.4c6.7,1.651,12.315,6.729,14.138,11.507Z" transform="translate(0 -100.244)" fill="#efc75e"></path>
</svg>
